<?xml version="1.0" encoding="UTF-8" standalone="no"?>
<!-- Created with Inkscape (http://www.inkscape.org/) -->

<svg
   width="512"
   height="512"
   viewBox="0 0 512 512"
   version="1.1"
   id="svg5"
   xml:space="preserve"
   inkscape:version="1.2.2 (b0a8486541, 2022-12-01)"
   sodipodi:docname="design.svg"
   xmlns:inkscape="http://www.inkscape.org/namespaces/inkscape"
   xmlns:sodipodi="http://sodipodi.sourceforge.net/DTD/sodipodi-0.dtd"
   xmlns="http://www.w3.org/2000/svg"
   xmlns:svg="http://www.w3.org/2000/svg"><sodipodi:namedview
     id="namedview7"
     pagecolor="#505050"
     bordercolor="#eeeeee"
     borderopacity="1"
     inkscape:showpageshadow="0"
     inkscape:pageopacity="0"
     inkscape:pagecheckerboard="0"
     inkscape:deskcolor="#505050"
     inkscape:document-units="px"
     showgrid="false"
     showguides="true"
     inkscape:zoom="0.34692313"
     inkscape:cx="729.26817"
     inkscape:cy="334.36802"
     inkscape:window-width="1920"
     inkscape:window-height="1024"
     inkscape:window-x="0"
     inkscape:window-y="0"
     inkscape:window-maximized="1"
     inkscape:current-layer="layer1" /><defs
     id="defs2"><inkscape:perspective
       sodipodi:type="inkscape:persp3d"
       inkscape:vp_x="0 : 256 : 1"
       inkscape:vp_y="0 : 1000 : 0"
       inkscape:vp_z="512 : 256 : 1"
       inkscape:persp3d-origin="256 : 170.66667 : 1"
       id="perspective17" /><clipPath
       clipPathUnits="userSpaceOnUse"
       id="clipPath4052"><circle
         style="fill:#1f1927;fill-opacity:1;stroke:none;stroke-width:10;stroke-dasharray:none;paint-order:stroke markers fill"
         id="circle4054"
         cx="256"
         cy="256"
         r="256" /></clipPath><clipPath
       clipPathUnits="userSpaceOnUse"
       id="clipPath1141"><circle
         style="fill:#1f1927;fill-opacity:1;stroke-width:10;paint-order:stroke markers fill"
         id="circle1143"
         cx="256"
         cy="256"
         r="256" /></clipPath></defs><g
     inkscape:label="Layer 1"
     inkscape:groupmode="layer"
     id="layer1"><g
       id="g4030"
       inkscape:export-filename="nIRC.png"
       inkscape:export-xdpi="96"
       inkscape:export-ydpi="96"><rect
         style="fill:#e1615e;stroke:none;stroke-width:7.58395;stroke-dasharray:none;paint-order:stroke markers fill;fill-opacity:1"
         id="rect1138"
         width="512"
         height="85.333336"
         x="0"
         y="0" /><rect
         style="fill:#e99d65;stroke:none;stroke-width:7.58395;stroke-dasharray:none;paint-order:stroke markers fill;fill-opacity:1"
         id="rect1244"
         width="512"
         height="85.333336"
         x="0"
         y="85.333336" /><rect
         style="fill:#edca83;stroke:none;stroke-width:7.58395;stroke-dasharray:none;paint-order:stroke markers fill;fill-opacity:1"
         id="rect1246"
         width="512"
         height="85.333336"
         x="0"
         y="170.66667" /><rect
         style="fill:#b3ed83;stroke:none;stroke-width:7.58395;stroke-dasharray:none;paint-order:stroke markers fill;fill-opacity:1"
         id="rect1248"
         width="512"
         height="85.333336"
         x="0"
         y="256" /><rect
         style="fill:#83bbed;stroke:none;stroke-width:7.58395;stroke-dasharray:none;paint-order:stroke markers fill;fill-opacity:1"
         id="rect1250"
         width="512"
         height="85.333336"
         x="0"
         y="341.33334" /><rect
         style="fill:#be83ed;stroke:none;stroke-width:7.58395;stroke-dasharray:none;paint-order:stroke markers fill;fill-opacity:1"
         id="rect1252"
         width="512"
         height="85.333336"
         x="0"
         y="426.66669" /><path
         id="path3437"
         style="fill:#433953;fill-opacity:1;stroke:none;stroke-width:10;stroke-dasharray:none;paint-order:stroke markers fill"
         inkscape:transform-center-x="1.8464476"
         inkscape:transform-center-y="-1.8464476"
         d="M 266.91797 42.335938 C 246.0078 43.646902 237.9421 65.723597 215.66211 70.570312 C 191.89678 75.740142 174.69772 56.359745 153.35156 68.015625 C 132.00541 79.671505 139.0121 104.61682 121.81445 121.81445 C 104.61681 139.0121 79.671505 132.00541 68.015625 153.35156 C 56.359745 174.69771 75.740142 191.89678 70.570312 215.66211 C 65.400484 239.42744 40.626278 247.02012 42.361328 271.2793 C 44.096378 295.53846 69.697899 299.52872 78.197266 322.31641 C 86.696632 345.10408 69.961995 364.8854 84.537109 384.35547 C 99.112224 403.82554 122.80727 393.3409 142.27734 407.91602 C 161.74742 422.49112 158.3627 448.18032 181.15039 456.67969 C 203.93808 465.17905 218.20372 443.54815 242.46289 445.2832 C 266.72207 447.01825 277.76203 470.4589 301.52734 465.28906 C 325.29267 460.11924 325.59916 434.21057 346.94531 422.55469 C 368.29147 410.89881 390.25353 424.64881 407.45117 407.45117 C 424.64881 390.25353 410.89881 368.29146 422.55469 346.94531 C 434.21057 325.59916 460.11924 325.29267 465.28906 301.52734 C 470.4589 277.76203 447.01825 266.72206 445.2832 242.46289 C 443.54815 218.20372 465.17905 203.93808 456.67969 181.15039 C 448.18032 158.36271 422.49112 161.74742 407.91602 142.27734 C 393.3409 122.80727 403.82554 99.112225 384.35547 84.537109 C 364.8854 69.961996 345.10408 86.696631 322.31641 78.197266 C 299.52872 69.697899 295.53846 44.096378 271.2793 42.361328 C 269.7631 42.252887 268.31198 42.24854 266.91797 42.335938 z M 297.89453 168.23047 C 300.08612 168.19688 302.32304 168.54138 304.51953 169.30469 C 314.56063 172.79408 319.8351 183.68742 316.3457 193.72852 L 312.98242 203.4082 C 309.49303 213.4493 298.59968 218.72377 288.55859 215.23438 C 278.5175 211.74498 273.24303 200.85163 276.73242 190.81055 L 280.09766 181.13086 C 282.82374 173.28627 290.06744 168.35041 297.89453 168.23047 z M 214.48438 168.29883 C 222.97652 168.24489 230.71533 173.90056 232.97852 182.50977 L 235.56445 192.3457 C 238.24675 202.5492 232.19179 212.92317 221.98828 215.60547 C 211.78478 218.28777 201.4108 212.23279 198.72852 202.0293 L 196.14258 192.19336 C 193.46028 181.98985 199.51525 171.61589 209.71875 168.93359 C 211.31305 168.51448 212.91175 168.30882 214.48438 168.29883 z M 256 238.99023 C 284.25606 238.99023 280.41494 255.84785 294.54297 280.31836 C 306.70697 301.38699 320.62544 308.10859 315.24805 325.18555 L 287.52148 303.6875 L 289.125 315.42188 L 293.76953 349.38867 C 284.34293 351.31699 272.98689 347.07813 256 347.07812 C 227.74397 347.07813 215.06551 358.83172 200.9375 334.36133 C 186.80947 309.89081 203.32705 304.78876 217.45508 280.31836 C 231.58309 255.84785 227.74397 238.99023 256 238.99023 z M 156.05664 249.78125 C 157.93193 249.77991 159.84141 250.10275 161.71094 250.7832 L 169.94922 253.78125 C 178.4956 256.89186 182.87233 266.27588 179.76172 274.82227 C 176.65111 283.36865 167.26513 287.74536 158.71875 284.63477 L 150.48047 281.63672 C 141.93409 278.52611 137.55931 269.14013 140.66992 260.59375 C 143.10008 253.91689 149.35919 249.78604 156.05664 249.78125 z M 355.94336 249.78125 C 362.64081 249.78601 368.89989 253.9169 371.33008 260.59375 C 374.44072 269.14012 370.0659 278.52608 361.51953 281.63672 L 353.28125 284.63477 C 344.73488 287.74539 335.34892 283.36864 332.23828 274.82227 C 329.12764 266.27588 333.50441 256.89189 342.05078 253.78125 L 350.28906 250.7832 C 352.15858 250.10275 354.06807 249.77992 355.94336 249.78125 z M 293.91797 314.76758 L 338.99219 349.71289 L 325.63281 357.42578 L 334.05859 372.02148 L 323.42969 378.1582 L 315.00195 363.5625 L 301.64453 371.27539 L 293.91797 314.76758 z " /><path
         id="rect2203"
         style="fill:#1f1927;fill-opacity:1;stroke:none;stroke-width:10;stroke-dasharray:none;paint-order:stroke markers fill"
         d="M 0 0 L 0 512 L 512 512 L 512 0 L 0 0 z M 214.30469 19.492188 C 235.00738 20.672391 247.52759 41.116798 271.45508 42.828125 C 298.80078 44.783928 314.87941 20.399715 340.56641 29.980469 C 366.2534 39.561221 362.43944 68.519691 384.38672 84.949219 C 406.334 101.37875 433.04312 89.560529 449.47266 111.50781 C 465.90218 133.45509 447.03643 155.75246 456.61719 181.43945 C 466.19794 207.12645 495.05787 211.625 497.01367 238.9707 C 498.96948 266.3164 471.04439 274.87504 465.2168 301.66406 C 459.3892 328.45309 481.23458 347.83833 468.0957 371.90039 C 454.95683 395.96244 426.83689 388.06545 407.45117 407.45117 C 388.06545 426.8369 395.96245 454.95682 371.90039 468.0957 C 347.83834 481.23458 328.45308 459.3892 301.66406 465.2168 C 274.87504 471.04439 266.31641 498.96947 238.9707 497.01367 C 211.625 495.05787 207.12645 466.19794 181.43945 456.61719 C 155.75245 447.03643 133.4551 465.90219 111.50781 449.47266 C 89.560532 433.04313 101.37875 406.334 84.949219 384.38672 C 68.519688 362.43944 39.561225 366.2534 29.980469 340.56641 C 20.399714 314.87941 44.783928 298.80078 42.828125 271.45508 C 40.872321 244.10937 14.447796 231.66207 20.275391 204.87305 C 26.102984 178.08403 55.310344 177.73979 68.449219 153.67773 C 81.588096 129.61568 66.086931 104.85838 85.472656 85.472656 C 104.85838 66.086933 129.61568 81.586141 153.67773 68.447266 C 177.73979 55.308388 178.08402 26.102988 204.87305 20.275391 C 208.22167 19.546941 211.34716 19.323587 214.30469 19.492188 z " /></g><g
       id="g1067"
       transform="translate(-12.037233,-18.167851)"
       inkscape:export-filename="nIRCBanner.png"
       inkscape:export-xdpi="96"
       inkscape:export-ydpi="96"><rect
         style="fill:#1f1927;fill-opacity:1;stroke-width:10.8961;paint-order:stroke markers fill"
         id="rect263"
         width="1726.9031"
         height="571.75873"
         x="683.41095"
         y="-11.711505"
         ry="73.688034"
         inkscape:export-filename="banner.png"
         inkscape:export-xdpi="96"
         inkscape:export-ydpi="96" /><g
         id="g5349"><text
           xml:space="preserve"
           style="font-weight:bold;font-size:393.676px;font-family:'Product Sans';-inkscape-font-specification:'Product Sans, Bold';text-align:center;text-anchor:middle;fill:#1f1927;fill-opacity:1;stroke:#e1615e;stroke-width:10;stroke-dasharray:none;stroke-opacity:1;paint-order:stroke markers fill"
           x="-848.78546"
           y="498.50049"
           id="text3846"
           transform="scale(-1,1)"><tspan
             sodipodi:role="line"
             id="tspan3844"
             x="-848.78546"
             y="498.50049"
             style="stroke:#e1615e;stroke-width:10;stroke-dasharray:none;stroke-opacity:1">n</tspan></text><text
           xml:space="preserve"
           style="font-weight:bold;font-size:375.002px;font-family:'Product Sans';-inkscape-font-specification:'Product Sans, Bold';text-align:center;text-anchor:middle;fill:#1f1927;fill-opacity:1;stroke:#be83ed;stroke-width:10;stroke-dasharray:none;stroke-opacity:1;paint-order:stroke markers fill"
           x="1218.3964"
           y="498.52536"
           id="text3902"><tspan
             sodipodi:role="line"
             id="tspan3900"
             x="1218.3964"
             y="498.52536"
             style="stroke:#be83ed;stroke-width:10;stroke-dasharray:none;stroke-opacity:1">RC</tspan></text><ellipse
           style="fill:#1f1927;fill-opacity:1;stroke:#e99d65;stroke-width:10;stroke-dasharray:none;stroke-opacity:1;paint-order:stroke markers fill"
           id="path3956"
           cx="916.48224"
           cy="251.1535"
           rx="23.24226"
           ry="43.147648" /><path
           id="path3958"
           style="fill:#1f1927;fill-opacity:1;stroke:#edca83;stroke-width:10.6383;stroke-dasharray:none;stroke-opacity:1;paint-order:stroke markers fill"
           d="m 916.48113,165.13808 a 49.7638,71.147324 0 0 0 -48.3527,54.7793 h 12.20588 a 37.967598,54.282288 0 0 1 36.14682,-37.91407 37.967598,54.282288 0 0 1 36.14904,37.91407 h 12.20588 a 49.7638,71.147324 0 0 0 -48.35492,-54.7793 z" /><path
           id="path4018"
           style="fill:#1f1927;fill-opacity:1;stroke:#b3ed83;stroke-width:11.5113;stroke-dasharray:none;stroke-opacity:1;paint-order:stroke markers fill"
           d="M 916.47991,106.47503 A 104.37135,126.44457 0 0 0 815.0681,203.82999 h 25.59984 a 79.630768,96.47166 0 0 1 75.81197,-67.38171 79.630768,96.47166 0 0 1 75.81663,67.38171 h 25.59986 A 104.37135,126.44457 0 0 0 916.47991,106.47503 Z" /><path
           id="path4020"
           style="fill:#1f1927;fill-opacity:1;stroke:#83bbed;stroke-width:12.3856;stroke-dasharray:none;stroke-opacity:1;paint-order:stroke markers fill"
           d="m 916.47853,36.51661 a 166.16161,175.26142 0 0 0 -161.44994,134.9411 h 40.75553 A 126.77403,133.71678 0 0 1 916.47853,78.061731 126.77403,133.71678 0 0 1 1037.1803,171.45771 h 40.7556 A 166.16161,175.26142 0 0 0 916.47853,36.51661 Z" /><g
           id="g4048"
           transform="matrix(0.30437127,0,0,0.30437127,1276.3013,286.3556)"
           clip-path="url(#clipPath4052)"><rect
             style="fill:#e1615e;fill-opacity:1;stroke:none;stroke-width:7.58395;stroke-dasharray:none;paint-order:stroke markers fill"
             id="rect4032"
             width="512"
             height="85.333336"
             x="0"
             y="0" /><rect
             style="fill:#e99d65;fill-opacity:1;stroke:none;stroke-width:7.58395;stroke-dasharray:none;paint-order:stroke markers fill"
             id="rect4034"
             width="512"
             height="85.333336"
             x="0"
             y="85.333336" /><rect
             style="fill:#edca83;fill-opacity:1;stroke:none;stroke-width:7.58395;stroke-dasharray:none;paint-order:stroke markers fill"
             id="rect4036"
             width="512"
             height="85.333336"
             x="0"
             y="170.66667" /><rect
             style="fill:#b3ed83;fill-opacity:1;stroke:none;stroke-width:7.58395;stroke-dasharray:none;paint-order:stroke markers fill"
             id="rect4038"
             width="512"
             height="85.333336"
             x="0"
             y="256" /><rect
             style="fill:#83bbed;fill-opacity:1;stroke:none;stroke-width:7.58395;stroke-dasharray:none;paint-order:stroke markers fill"
             id="rect4040"
             width="512"
             height="85.333336"
             x="0"
             y="341.33334" /><rect
             style="fill:#be83ed;fill-opacity:1;stroke:none;stroke-width:7.58395;stroke-dasharray:none;paint-order:stroke markers fill"
             id="rect4042"
             width="512"
             height="85.333336"
             x="0"
             y="426.66669" /><path
             id="path4044"
             style="fill:#433953;fill-opacity:1;stroke:none;stroke-width:10;stroke-dasharray:none;paint-order:stroke markers fill"
             inkscape:transform-center-x="1.8464476"
             inkscape:transform-center-y="-1.8464476"
             d="m 266.91797,42.335938 c -20.91017,1.310964 -28.97587,23.387659 -51.25586,28.234374 -23.76533,5.16983 -40.96439,-14.210567 -62.31055,-2.554687 -21.34615,11.65588 -14.33946,36.601195 -31.53711,53.798825 -17.19764,17.19765 -42.142945,10.19096 -53.798825,31.53711 -11.65588,21.34615 7.724517,38.54522 2.554687,62.31055 -5.169828,23.76533 -29.944034,31.35801 -28.208984,55.61719 1.73505,24.25916 27.336571,28.24942 35.835938,51.03711 8.499366,22.78767 -8.235271,42.56899 6.339843,62.03906 14.575115,19.47007 38.270161,8.98543 57.740231,23.56055 19.47008,14.5751 16.08536,40.2643 38.87305,48.76367 22.78769,8.49936 37.05333,-13.13154 61.3125,-11.39649 24.25918,1.73505 35.29914,25.1757 59.06445,20.00586 23.76533,-5.16982 24.07182,-31.07849 45.41797,-42.73437 21.34616,-11.65588 43.30822,2.09412 60.50586,-15.10352 17.19764,-17.19764 3.44764,-39.15971 15.10352,-60.50586 11.65588,-21.34615 37.56455,-21.65264 42.73437,-45.41797 5.16984,-23.76531 -18.27081,-34.80528 -20.00586,-59.06445 -1.73505,-24.25917 19.89585,-38.52481 11.39649,-61.3125 -8.49937,-22.78768 -34.18857,-19.40297 -48.76367,-38.87305 C 393.3409,122.80727 403.82554,99.112225 384.35547,84.537109 364.8854,69.961996 345.10408,86.696631 322.31641,78.197266 299.52872,69.697899 295.53846,44.096378 271.2793,42.361328 c -1.5162,-0.108441 -2.96732,-0.112788 -4.36133,-0.02539 z m 30.97656,125.894532 c 2.19159,-0.0336 4.42851,0.31091 6.625,1.07422 10.0411,3.48939 15.31557,14.38273 11.82617,24.42383 l -3.36328,9.67968 c -3.48939,10.0411 -14.38274,15.31557 -24.42383,11.82618 -10.04109,-3.4894 -15.31556,-14.38275 -11.82617,-24.42383 l 3.36524,-9.67969 c 2.72608,-7.84459 9.96978,-12.78045 17.79687,-12.90039 z m -83.41015,0.0684 c 8.49214,-0.0539 16.23095,5.60173 18.49414,14.21094 l 2.58593,9.83593 c 2.6823,10.2035 -3.37266,20.57747 -13.57617,23.25977 -10.2035,2.6823 -20.57748,-3.37268 -23.25976,-13.57617 l -2.58594,-9.83594 c -2.6823,-10.20351 3.37267,-20.57747 13.57617,-23.25977 1.5943,-0.41911 3.193,-0.62477 4.76563,-0.63476 z M 256,238.99023 c 28.25606,0 24.41494,16.85762 38.54297,41.32813 12.164,21.06863 26.08247,27.79023 20.70508,44.86719 l -27.72657,-21.49805 1.60352,11.73438 4.64453,33.96679 c -9.4266,1.92832 -20.78264,-2.31054 -37.76953,-2.31055 -28.25603,10e-6 -40.93449,11.7536 -55.0625,-12.71679 -14.12803,-24.47052 2.38955,-29.57257 16.51758,-54.04297 C 231.58309,255.84785 227.74397,238.99023 256,238.99023 Z m -99.94336,10.79102 c 1.87529,-0.001 3.78477,0.3215 5.6543,1.00195 l 8.23828,2.99805 c 8.54638,3.11061 12.92311,12.49463 9.8125,21.04102 -3.11061,8.54638 -12.49659,12.92309 -21.04297,9.8125 l -8.23828,-2.99805 c -8.54638,-3.11061 -12.92116,-12.49659 -9.81055,-21.04297 2.43016,-6.67686 8.68927,-10.80771 15.38672,-10.8125 z m 199.88672,0 c 6.69745,0.005 12.95653,4.13565 15.38672,10.8125 3.11064,8.54637 -1.26418,17.93233 -9.81055,21.04297 l -8.23828,2.99805 c -8.54637,3.11062 -17.93233,-1.26613 -21.04297,-9.8125 -3.11064,-8.54639 1.26613,-17.93038 9.8125,-21.04102 l 8.23828,-2.99805 c 1.86952,-0.68045 3.77901,-1.00328 5.6543,-1.00195 z m -62.02539,64.98633 45.07422,34.94531 -13.35938,7.71289 8.42578,14.5957 -10.6289,6.13672 -8.42774,-14.5957 -13.35742,7.71289 z" /><path
             id="path4046"
             style="fill:#1f1927;fill-opacity:1;stroke:none;stroke-width:10;stroke-dasharray:none;paint-order:stroke markers fill"
             d="M 0,0 V 512 H 512 V 0 Z m 214.30469,19.492188 c 20.70269,1.180203 33.2229,21.62461 57.15039,23.335937 27.3457,1.955803 43.42433,-22.42841 69.11133,-12.847656 25.68699,9.580752 21.87303,38.539222 43.82031,54.96875 21.94728,16.429531 48.6564,4.61131 65.08594,26.558591 16.42952,21.94728 -2.43623,44.24465 7.14453,69.93164 9.58075,25.687 38.44068,30.18555 40.39648,57.53125 1.95581,27.3457 -25.96928,35.90434 -31.79687,62.69336 -5.8276,26.78903 16.01778,46.17427 2.8789,70.23633 -13.13887,24.06205 -41.25881,16.16506 -60.64453,35.55078 -19.38572,19.38573 -11.48872,47.50565 -35.55078,60.64453 -24.06205,13.13888 -43.44731,-8.7065 -70.23633,-2.8789 -26.78902,5.82759 -35.34765,33.75267 -62.69336,31.79687 -27.3457,-1.9558 -31.84425,-30.81573 -57.53125,-40.39648 -25.687,-9.58076 -47.98435,9.285 -69.93164,-7.14453 C 89.560532,433.04313 101.37875,406.334 84.949219,384.38672 68.519688,362.43944 39.561225,366.2534 29.980469,340.56641 20.399714,314.87941 44.783928,298.80078 42.828125,271.45508 40.872321,244.10937 14.447796,231.66207 20.275391,204.87305 26.102984,178.08403 55.310344,177.73979 68.449219,153.67773 81.588096,129.61568 66.086931,104.85838 85.472656,85.472656 104.85838,66.086933 129.61568,81.586141 153.67773,68.447266 c 24.06206,-13.138878 24.40629,-42.344278 51.19532,-48.171875 3.34862,-0.72845 6.47411,-0.951804 9.43164,-0.783203 z" /></g><text
           xml:space="preserve"
           style="font-style:italic;font-variant:normal;font-weight:normal;font-stretch:normal;font-size:138.477px;font-family:'VictorMono Nerd Font';-inkscape-font-specification:'VictorMono Nerd Font, Italic';font-variant-ligatures:normal;font-variant-caps:normal;font-variant-numeric:normal;font-variant-east-asian:normal;text-align:center;text-anchor:middle;fill:#be83ed;fill-opacity:1;stroke:none;stroke-width:25.9643;stroke-dasharray:none;stroke-opacity:1;paint-order:stroke markers fill"
           x="1944.84"
           y="485.20142"
           id="text4932"><tspan
             sodipodi:role="line"
             id="tspan4930"
             x="1982.6063"
             y="485.20142"
             style="fill:#be83ed;fill-opacity:1;stroke-width:25.9643">by NekoMimi </tspan></text></g></g><g
       id="g1085"
       transform="translate(-735.25697)"
       clip-path="url(#clipPath1141)"
       inkscape:export-filename="nIRCirc.png"
       inkscape:export-xdpi="96"
       inkscape:export-ydpi="96"><rect
         style="fill:#e1615e;fill-opacity:1;stroke:none;stroke-width:7.58395;stroke-dasharray:none;paint-order:stroke markers fill"
         id="rect1069"
         width="512"
         height="85.333336"
         x="0"
         y="0" /><rect
         style="fill:#e99d65;fill-opacity:1;stroke:none;stroke-width:7.58395;stroke-dasharray:none;paint-order:stroke markers fill"
         id="rect1071"
         width="512"
         height="85.333336"
         x="0"
         y="85.333336" /><rect
         style="fill:#edca83;fill-opacity:1;stroke:none;stroke-width:7.58395;stroke-dasharray:none;paint-order:stroke markers fill"
         id="rect1073"
         width="512"
         height="85.333336"
         x="0"
         y="170.66667" /><rect
         style="fill:#b3ed83;fill-opacity:1;stroke:none;stroke-width:7.58395;stroke-dasharray:none;paint-order:stroke markers fill"
         id="rect1075"
         width="512"
         height="85.333336"
         x="0"
         y="256" /><rect
         style="fill:#83bbed;fill-opacity:1;stroke:none;stroke-width:7.58395;stroke-dasharray:none;paint-order:stroke markers fill"
         id="rect1077"
         width="512"
         height="85.333336"
         x="0"
         y="341.33334" /><rect
         style="fill:#be83ed;fill-opacity:1;stroke:none;stroke-width:7.58395;stroke-dasharray:none;paint-order:stroke markers fill"
         id="rect1079"
         width="512"
         height="85.333336"
         x="0"
         y="426.66669" /><path
         id="path1081"
         style="fill:#433953;fill-opacity:1;stroke:none;stroke-width:10;stroke-dasharray:none;paint-order:stroke markers fill"
         inkscape:transform-center-x="1.8464476"
         inkscape:transform-center-y="-1.8464476"
         d="m 266.91797,42.335938 c -20.91017,1.310964 -28.97587,23.387659 -51.25586,28.234374 -23.76533,5.16983 -40.96439,-14.210567 -62.31055,-2.554687 -21.34615,11.65588 -14.33946,36.601195 -31.53711,53.798825 -17.19764,17.19765 -42.142945,10.19096 -53.798825,31.53711 -11.65588,21.34615 7.724517,38.54522 2.554687,62.31055 -5.169828,23.76533 -29.944034,31.35801 -28.208984,55.61719 1.73505,24.25916 27.336571,28.24942 35.835938,51.03711 8.499366,22.78767 -8.235271,42.56899 6.339843,62.03906 14.575115,19.47007 38.270161,8.98543 57.740231,23.56055 19.47008,14.5751 16.08536,40.2643 38.87305,48.76367 22.78769,8.49936 37.05333,-13.13154 61.3125,-11.39649 24.25918,1.73505 35.29914,25.1757 59.06445,20.00586 23.76533,-5.16982 24.07182,-31.07849 45.41797,-42.73437 21.34616,-11.65588 43.30822,2.09412 60.50586,-15.10352 17.19764,-17.19764 3.44764,-39.15971 15.10352,-60.50586 11.65588,-21.34615 37.56455,-21.65264 42.73437,-45.41797 5.16984,-23.76531 -18.27081,-34.80528 -20.00586,-59.06445 -1.73505,-24.25917 19.89585,-38.52481 11.39649,-61.3125 -8.49937,-22.78768 -34.18857,-19.40297 -48.76367,-38.87305 C 393.3409,122.80727 403.82554,99.112225 384.35547,84.537109 364.8854,69.961996 345.10408,86.696631 322.31641,78.197266 299.52872,69.697899 295.53846,44.096378 271.2793,42.361328 c -1.5162,-0.108441 -2.96732,-0.112788 -4.36133,-0.02539 z m 30.97656,125.894532 c 2.19159,-0.0336 4.42851,0.31091 6.625,1.07422 10.0411,3.48939 15.31557,14.38273 11.82617,24.42383 l -3.36328,9.67968 c -3.48939,10.0411 -14.38274,15.31557 -24.42383,11.82618 -10.04109,-3.4894 -15.31556,-14.38275 -11.82617,-24.42383 l 3.36524,-9.67969 c 2.72608,-7.84459 9.96978,-12.78045 17.79687,-12.90039 z m -83.41015,0.0684 c 8.49214,-0.0539 16.23095,5.60173 18.49414,14.21094 l 2.58593,9.83593 c 2.6823,10.2035 -3.37266,20.57747 -13.57617,23.25977 -10.2035,2.6823 -20.57748,-3.37268 -23.25976,-13.57617 l -2.58594,-9.83594 c -2.6823,-10.20351 3.37267,-20.57747 13.57617,-23.25977 1.5943,-0.41911 3.193,-0.62477 4.76563,-0.63476 z M 256,238.99023 c 28.25606,0 24.41494,16.85762 38.54297,41.32813 12.164,21.06863 26.08247,27.79023 20.70508,44.86719 l -27.72657,-21.49805 1.60352,11.73438 4.64453,33.96679 c -9.4266,1.92832 -20.78264,-2.31054 -37.76953,-2.31055 -28.25603,10e-6 -40.93449,11.7536 -55.0625,-12.71679 -14.12803,-24.47052 2.38955,-29.57257 16.51758,-54.04297 C 231.58309,255.84785 227.74397,238.99023 256,238.99023 Z m -99.94336,10.79102 c 1.87529,-0.001 3.78477,0.3215 5.6543,1.00195 l 8.23828,2.99805 c 8.54638,3.11061 12.92311,12.49463 9.8125,21.04102 -3.11061,8.54638 -12.49659,12.92309 -21.04297,9.8125 l -8.23828,-2.99805 c -8.54638,-3.11061 -12.92116,-12.49659 -9.81055,-21.04297 2.43016,-6.67686 8.68927,-10.80771 15.38672,-10.8125 z m 199.88672,0 c 6.69745,0.005 12.95653,4.13565 15.38672,10.8125 3.11064,8.54637 -1.26418,17.93233 -9.81055,21.04297 l -8.23828,2.99805 c -8.54637,3.11062 -17.93233,-1.26613 -21.04297,-9.8125 -3.11064,-8.54639 1.26613,-17.93038 9.8125,-21.04102 l 8.23828,-2.99805 c 1.86952,-0.68045 3.77901,-1.00328 5.6543,-1.00195 z m -62.02539,64.98633 45.07422,34.94531 -13.35938,7.71289 8.42578,14.5957 -10.6289,6.13672 -8.42774,-14.5957 -13.35742,7.71289 z" /><path
         id="path1083"
         style="fill:#1f1927;fill-opacity:1;stroke:none;stroke-width:10;stroke-dasharray:none;paint-order:stroke markers fill"
         d="M 0,0 V 512 H 512 V 0 Z m 214.30469,19.492188 c 20.70269,1.180203 33.2229,21.62461 57.15039,23.335937 27.3457,1.955803 43.42433,-22.42841 69.11133,-12.847656 25.68699,9.580752 21.87303,38.539222 43.82031,54.96875 21.94728,16.429531 48.6564,4.61131 65.08594,26.558591 16.42952,21.94728 -2.43623,44.24465 7.14453,69.93164 9.58075,25.687 38.44068,30.18555 40.39648,57.53125 1.95581,27.3457 -25.96928,35.90434 -31.79687,62.69336 -5.8276,26.78903 16.01778,46.17427 2.8789,70.23633 -13.13887,24.06205 -41.25881,16.16506 -60.64453,35.55078 -19.38572,19.38573 -11.48872,47.50565 -35.55078,60.64453 -24.06205,13.13888 -43.44731,-8.7065 -70.23633,-2.8789 -26.78902,5.82759 -35.34765,33.75267 -62.69336,31.79687 -27.3457,-1.9558 -31.84425,-30.81573 -57.53125,-40.39648 -25.687,-9.58076 -47.98435,9.285 -69.93164,-7.14453 C 89.560532,433.04313 101.37875,406.334 84.949219,384.38672 68.519688,362.43944 39.561225,366.2534 29.980469,340.56641 20.399714,314.87941 44.783928,298.80078 42.828125,271.45508 40.872321,244.10937 14.447796,231.66207 20.275391,204.87305 26.102984,178.08403 55.310344,177.73979 68.449219,153.67773 81.588096,129.61568 66.086931,104.85838 85.472656,85.472656 104.85838,66.086933 129.61568,81.586141 153.67773,68.447266 c 24.06206,-13.138878 24.40629,-42.344278 51.19532,-48.171875 3.34862,-0.72845 6.47411,-0.951804 9.43164,-0.783203 z" /></g></g></svg>
