<?xml version="1.0" encoding="UTF-8" standalone="no"?>
<!-- Created with Inkscape (http://www.inkscape.org/) -->

<svg
   width="512"
   height="512"
   viewBox="0 0 512 512"
   version="1.1"
   id="svg5"
   xml:space="preserve"
   inkscape:version="1.2.2 (b0a8486541, 2022-12-01)"
   sodipodi:docname="design.svg"
   xmlns:inkscape="http://www.inkscape.org/namespaces/inkscape"
   xmlns:sodipodi="http://sodipodi.sourceforge.net/DTD/sodipodi-0.dtd"
   xmlns="http://www.w3.org/2000/svg"
   xmlns:svg="http://www.w3.org/2000/svg"><sodipodi:namedview
     id="namedview7"
     pagecolor="#505050"
     bordercolor="#eeeeee"
     borderopacity="1"
     inkscape:showpageshadow="0"
     inkscape:pageopacity="0"
     inkscape:pagecheckerboard="0"
     inkscape:deskcolor="#505050"
     inkscape:document-units="px"
     showgrid="false"
     showguides="true"
     inkscape:zoom="0.23728689"
     inkscape:cx="-219.144"
     inkscape:cy="1744.7234"
     inkscape:window-width="1920"
     inkscape:window-height="1024"
     inkscape:window-x="0"
     inkscape:window-y="0"
     inkscape:window-maximized="1"
     inkscape:current-layer="layer1" /><defs
     id="defs2"><inkscape:perspective
       sodipodi:type="inkscape:persp3d"
       inkscape:vp_x="0 : 256 : 1"
       inkscape:vp_y="0 : 1000 : 0"
       inkscape:vp_z="512 : 256 : 1"
       inkscape:persp3d-origin="256 : 170.66667 : 1"
       id="perspective17" /><clipPath
       clipPathUnits="userSpaceOnUse"
       id="clipPath4052"><circle
         style="fill:#1f1927;fill-opacity:1;stroke:none;stroke-width:10;stroke-dasharray:none;paint-order:stroke markers fill"
         id="circle4054"
         cx="256"
         cy="256"
         r="256" /></clipPath><clipPath
       clipPathUnits="userSpaceOnUse"
       id="clipPath1141"><circle
         style="fill:#1f1927;fill-opacity:1;stroke-width:10;paint-order:stroke markers fill"
         id="circle1143"
         cx="256"
         cy="256"
         r="256" /></clipPath><filter
       inkscape:collect="always"
       style="color-interpolation-filters:sRGB"
       id="filter894"
       x="-0.12079454"
       y="-0.53963579"
       width="1.2415891"
       height="2.0792716"><feGaussianBlur
         inkscape:collect="always"
         stdDeviation="19.18675"
         id="feGaussianBlur896" /></filter><filter
       inkscape:collect="always"
       style="color-interpolation-filters:sRGB"
       id="filter898"
       x="-0.095527945"
       y="-0.53963579"
       width="1.1910559"
       height="2.0792716"><feGaussianBlur
         inkscape:collect="always"
         stdDeviation="19.18675"
         id="feGaussianBlur900" /></filter><filter
       inkscape:collect="always"
       style="color-interpolation-filters:sRGB"
       id="filter902"
       x="-0.089937893"
       y="-0.53962734"
       width="1.1798758"
       height="2.0792547"><feGaussianBlur
         inkscape:collect="always"
         stdDeviation="19.18675"
         id="feGaussianBlur904" /></filter><filter
       inkscape:collect="always"
       style="color-interpolation-filters:sRGB"
       id="filter906"
       x="-0.089937893"
       y="-0.53963579"
       width="1.1798758"
       height="2.0792716"><feGaussianBlur
         inkscape:collect="always"
         stdDeviation="19.18675"
         id="feGaussianBlur908" /></filter><filter
       inkscape:collect="always"
       style="color-interpolation-filters:sRGB"
       id="filter914"
       x="-0.12089303"
       y="-0.53962734"
       width="1.2417861"
       height="2.0792547"><feGaussianBlur
         inkscape:collect="always"
         stdDeviation="19.18675"
         id="feGaussianBlur916" /></filter><filter
       inkscape:collect="always"
       style="color-interpolation-filters:sRGB"
       id="filter1249"
       x="-0.09541663"
       y="-0.53829718"
       width="1.1908333"
       height="2.0765944"><feGaussianBlur
         inkscape:collect="always"
         stdDeviation="19.139157"
         id="feGaussianBlur1251" /></filter><clipPath
       clipPathUnits="userSpaceOnUse"
       id="clipPath1283"><circle
         style="fill:#2c2e40;stroke-width:10;paint-order:stroke markers fill"
         id="circle1285"
         cx="-321.88684"
         cy="-543.0304"
         r="256.00003" /></clipPath><filter
       inkscape:collect="always"
       style="color-interpolation-filters:sRGB"
       id="filter3415"
       x="-0.019005128"
       y="-0.051982146"
       width="1.0380103"
       height="1.1039643"><feGaussianBlur
         inkscape:collect="always"
         stdDeviation="14.540783"
         id="feGaussianBlur3417" /></filter></defs><g
     inkscape:label="Layer 1"
     inkscape:groupmode="layer"
     id="layer1"><rect
       style="fill:#e1615e;fill-opacity:1;stroke:none;stroke-width:7.58395;stroke-dasharray:none;paint-order:stroke markers fill"
       id="rect1138"
       width="512"
       height="85.333336"
       x="0"
       y="0" /><rect
       style="fill:#e99d65;fill-opacity:1;stroke:none;stroke-width:7.58395;stroke-dasharray:none;paint-order:stroke markers fill"
       id="rect1244"
       width="512"
       height="85.333336"
       x="0"
       y="85.333336" /><rect
       style="fill:#edca83;fill-opacity:1;stroke:none;stroke-width:7.58395;stroke-dasharray:none;paint-order:stroke markers fill"
       id="rect1246"
       width="512"
       height="85.333336"
       x="0"
       y="170.66667" /><rect
       style="fill:#b3ed83;fill-opacity:1;stroke:none;stroke-width:7.58395;stroke-dasharray:none;paint-order:stroke markers fill"
       id="rect1248"
       width="512"
       height="85.333336"
       x="0"
       y="256" /><rect
       style="fill:#83bbed;fill-opacity:1;stroke:none;stroke-width:7.58395;stroke-dasharray:none;paint-order:stroke markers fill"
       id="rect1250"
       width="512"
       height="85.333336"
       x="0"
       y="341.33334" /><rect
       style="fill:#be83ed;fill-opacity:1;stroke:none;stroke-width:7.58395;stroke-dasharray:none;paint-order:stroke markers fill"
       id="rect1252"
       width="512"
       height="85.333336"
       x="0"
       y="426.66669" /><path
       id="path3437"
       style="fill:#433953;fill-opacity:1;stroke:none;stroke-width:10;stroke-dasharray:none;paint-order:stroke markers fill"
       inkscape:transform-center-x="1.8464476"
       inkscape:transform-center-y="-1.8464476"
       d="m 266.91797,42.335938 c -20.91017,1.310964 -28.97587,23.387659 -51.25586,28.234374 -23.76533,5.16983 -40.96439,-14.210567 -62.31055,-2.554687 -21.34615,11.65588 -14.33946,36.601195 -31.53711,53.798825 -17.19764,17.19765 -42.142945,10.19096 -53.798825,31.53711 -11.65588,21.34615 7.724517,38.54522 2.554687,62.31055 -5.169828,23.76533 -29.944034,31.35801 -28.208984,55.61719 1.73505,24.25916 27.336571,28.24942 35.835938,51.03711 8.499366,22.78767 -8.235271,42.56899 6.339843,62.03906 14.575115,19.47007 38.270161,8.98543 57.740231,23.56055 19.47008,14.5751 16.08536,40.2643 38.87305,48.76367 22.78769,8.49936 37.05333,-13.13154 61.3125,-11.39649 24.25918,1.73505 35.29914,25.1757 59.06445,20.00586 23.76533,-5.16982 24.07182,-31.07849 45.41797,-42.73437 21.34616,-11.65588 43.30822,2.09412 60.50586,-15.10352 17.19764,-17.19764 3.44764,-39.15971 15.10352,-60.50586 11.65588,-21.34615 37.56455,-21.65264 42.73437,-45.41797 5.16984,-23.76531 -18.27081,-34.80528 -20.00586,-59.06445 -1.73505,-24.25917 19.89585,-38.52481 11.39649,-61.3125 -8.49937,-22.78768 -34.18857,-19.40297 -48.76367,-38.87305 C 393.3409,122.80727 403.82554,99.112225 384.35547,84.537109 364.8854,69.961996 345.10408,86.696631 322.31641,78.197266 299.52872,69.697899 295.53846,44.096378 271.2793,42.361328 c -1.5162,-0.108441 -2.96732,-0.112788 -4.36133,-0.02539 z m 30.97656,125.894532 c 2.19159,-0.0336 4.42851,0.31091 6.625,1.07422 10.0411,3.48939 15.31557,14.38273 11.82617,24.42383 l -3.36328,9.67968 c -3.48939,10.0411 -14.38274,15.31557 -24.42383,11.82618 -10.04109,-3.4894 -15.31556,-14.38275 -11.82617,-24.42383 l 3.36524,-9.67969 c 2.72608,-7.84459 9.96978,-12.78045 17.79687,-12.90039 z m -83.41015,0.0684 c 8.49214,-0.0539 16.23095,5.60173 18.49414,14.21094 l 2.58593,9.83593 c 2.6823,10.2035 -3.37266,20.57747 -13.57617,23.25977 -10.2035,2.6823 -20.57748,-3.37268 -23.25976,-13.57617 l -2.58594,-9.83594 c -2.6823,-10.20351 3.37267,-20.57747 13.57617,-23.25977 1.5943,-0.41911 3.193,-0.62477 4.76563,-0.63476 z M 256,238.99023 c 28.25606,0 24.41494,16.85762 38.54297,41.32813 12.164,21.06863 26.08247,27.79023 20.70508,44.86719 l -27.72657,-21.49805 1.60352,11.73438 4.64453,33.96679 c -9.4266,1.92832 -20.78264,-2.31054 -37.76953,-2.31055 -28.25603,10e-6 -40.93449,11.7536 -55.0625,-12.71679 -14.12803,-24.47052 2.38955,-29.57257 16.51758,-54.04297 C 231.58309,255.84785 227.74397,238.99023 256,238.99023 Z m -99.94336,10.79102 c 1.87529,-0.001 3.78477,0.3215 5.6543,1.00195 l 8.23828,2.99805 c 8.54638,3.11061 12.92311,12.49463 9.8125,21.04102 -3.11061,8.54638 -12.49659,12.92309 -21.04297,9.8125 l -8.23828,-2.99805 c -8.54638,-3.11061 -12.92116,-12.49659 -9.81055,-21.04297 2.43016,-6.67686 8.68927,-10.80771 15.38672,-10.8125 z m 199.88672,0 c 6.69745,0.005 12.95653,4.13565 15.38672,10.8125 3.11064,8.54637 -1.26418,17.93233 -9.81055,21.04297 l -8.23828,2.99805 c -8.54637,3.11062 -17.93233,-1.26613 -21.04297,-9.8125 -3.11064,-8.54639 1.26613,-17.93038 9.8125,-21.04102 l 8.23828,-2.99805 c 1.86952,-0.68045 3.77901,-1.00328 5.6543,-1.00195 z m -62.02539,64.98633 45.07422,34.94531 -13.35938,7.71289 8.42578,14.5957 -10.6289,6.13672 -8.42774,-14.5957 -13.35742,7.71289 z" /><path
       id="rect2203"
       style="fill:#1f1927;fill-opacity:1;stroke:none;stroke-width:10;stroke-dasharray:none;paint-order:stroke markers fill"
       d="M 0,0 V 512 H 512 V 0 Z m 214.30469,19.492188 c 20.70269,1.180203 33.2229,21.62461 57.15039,23.335937 27.3457,1.955803 43.42433,-22.42841 69.11133,-12.847656 25.68699,9.580752 21.87303,38.539222 43.82031,54.96875 21.94728,16.429531 48.6564,4.61131 65.08594,26.558591 16.42952,21.94728 -2.43623,44.24465 7.14453,69.93164 9.58075,25.687 38.44068,30.18555 40.39648,57.53125 1.95581,27.3457 -25.96928,35.90434 -31.79687,62.69336 -5.8276,26.78903 16.01778,46.17427 2.8789,70.23633 -13.13887,24.06205 -41.25881,16.16506 -60.64453,35.55078 -19.38572,19.38573 -11.48872,47.50565 -35.55078,60.64453 -24.06205,13.13888 -43.44731,-8.7065 -70.23633,-2.8789 -26.78902,5.82759 -35.34765,33.75267 -62.69336,31.79687 -27.3457,-1.9558 -31.84425,-30.81573 -57.53125,-40.39648 -25.687,-9.58076 -47.98435,9.285 -69.93164,-7.14453 C 89.560532,433.04313 101.37875,406.334 84.949219,384.38672 68.519688,362.43944 39.561225,366.2534 29.980469,340.56641 20.399714,314.87941 44.783928,298.80078 42.828125,271.45508 40.872321,244.10937 14.447796,231.66207 20.275391,204.87305 26.102984,178.08403 55.310344,177.73979 68.449219,153.67773 81.588096,129.61568 66.086931,104.85838 85.472656,85.472656 104.85838,66.086933 129.61568,81.586141 153.67773,68.447266 c 24.06206,-13.138878 24.40629,-42.344278 51.19532,-48.171875 3.34862,-0.72845 6.47411,-0.951804 9.43164,-0.783203 z" /><g
       id="g1067"
       transform="translate(-12.037233,-18.167851)"
       inkscape:export-filename="nIRCBanner.png"
       inkscape:export-xdpi="96"
       inkscape:export-ydpi="96"><rect
         style="fill:#1f1927;fill-opacity:1;stroke-width:10.8961;paint-order:stroke markers fill"
         id="rect263"
         width="1726.9031"
         height="571.75873"
         x="683.41095"
         y="-11.711505"
         ry="73.688034"
         inkscape:export-filename="banner.png"
         inkscape:export-xdpi="96"
         inkscape:export-ydpi="96" /><g
         id="g5349"><text
           xml:space="preserve"
           style="font-weight:bold;font-size:393.676px;font-family:'Product Sans';-inkscape-font-specification:'Product Sans, Bold';text-align:center;text-anchor:middle;fill:#1f1927;fill-opacity:1;stroke:#e1615e;stroke-width:10;stroke-dasharray:none;stroke-opacity:1;paint-order:stroke markers fill"
           x="-848.78546"
           y="498.50049"
           id="text3846"
           transform="scale(-1,1)"><tspan
             sodipodi:role="line"
             id="tspan3844"
             x="-848.78546"
             y="498.50049"
             style="stroke:#e1615e;stroke-width:10;stroke-dasharray:none;stroke-opacity:1">n</tspan></text><text
           xml:space="preserve"
           style="font-weight:bold;font-size:375.002px;font-family:'Product Sans';-inkscape-font-specification:'Product Sans, Bold';text-align:center;text-anchor:middle;fill:#1f1927;fill-opacity:1;stroke:#be83ed;stroke-width:10;stroke-dasharray:none;stroke-opacity:1;paint-order:stroke markers fill"
           x="1218.3964"
           y="498.52536"
           id="text3902"><tspan
             sodipodi:role="line"
             id="tspan3900"
             x="1218.3964"
             y="498.52536"
             style="stroke:#be83ed;stroke-width:10;stroke-dasharray:none;stroke-opacity:1">RC</tspan></text><ellipse
           style="fill:#1f1927;fill-opacity:1;stroke:#e99d65;stroke-width:10;stroke-dasharray:none;stroke-opacity:1;paint-order:stroke markers fill"
           id="path3956"
           cx="916.48224"
           cy="251.1535"
           rx="23.24226"
           ry="43.147648" /><path
           id="path3958"
           style="fill:#1f1927;fill-opacity:1;stroke:#edca83;stroke-width:10.6383;stroke-dasharray:none;stroke-opacity:1;paint-order:stroke markers fill"
           d="m 916.48113,165.13808 a 49.7638,71.147324 0 0 0 -48.3527,54.7793 h 12.20588 a 37.967598,54.282288 0 0 1 36.14682,-37.91407 37.967598,54.282288 0 0 1 36.14904,37.91407 h 12.20588 a 49.7638,71.147324 0 0 0 -48.35492,-54.7793 z" /><path
           id="path4018"
           style="fill:#1f1927;fill-opacity:1;stroke:#b3ed83;stroke-width:11.5113;stroke-dasharray:none;stroke-opacity:1;paint-order:stroke markers fill"
           d="M 916.47991,106.47503 A 104.37135,126.44457 0 0 0 815.0681,203.82999 h 25.59984 a 79.630768,96.47166 0 0 1 75.81197,-67.38171 79.630768,96.47166 0 0 1 75.81663,67.38171 h 25.59986 A 104.37135,126.44457 0 0 0 916.47991,106.47503 Z" /><path
           id="path4020"
           style="fill:#1f1927;fill-opacity:1;stroke:#83bbed;stroke-width:12.3856;stroke-dasharray:none;stroke-opacity:1;paint-order:stroke markers fill"
           d="m 916.47853,36.51661 a 166.16161,175.26142 0 0 0 -161.44994,134.9411 h 40.75553 A 126.77403,133.71678 0 0 1 916.47853,78.061731 126.77403,133.71678 0 0 1 1037.1803,171.45771 h 40.7556 A 166.16161,175.26142 0 0 0 916.47853,36.51661 Z" /><g
           id="g4048"
           transform="matrix(0.30437127,0,0,0.30437127,1276.3013,286.3556)"
           clip-path="url(#clipPath4052)"><rect
             style="fill:#e1615e;fill-opacity:1;stroke:none;stroke-width:7.58395;stroke-dasharray:none;paint-order:stroke markers fill"
             id="rect4032"
             width="512"
             height="85.333336"
             x="0"
             y="0" /><rect
             style="fill:#e99d65;fill-opacity:1;stroke:none;stroke-width:7.58395;stroke-dasharray:none;paint-order:stroke markers fill"
             id="rect4034"
             width="512"
             height="85.333336"
             x="0"
             y="85.333336" /><rect
             style="fill:#edca83;fill-opacity:1;stroke:none;stroke-width:7.58395;stroke-dasharray:none;paint-order:stroke markers fill"
             id="rect4036"
             width="512"
             height="85.333336"
             x="0"
             y="170.66667" /><rect
             style="fill:#b3ed83;fill-opacity:1;stroke:none;stroke-width:7.58395;stroke-dasharray:none;paint-order:stroke markers fill"
             id="rect4038"
             width="512"
             height="85.333336"
             x="0"
             y="256" /><rect
             style="fill:#83bbed;fill-opacity:1;stroke:none;stroke-width:7.58395;stroke-dasharray:none;paint-order:stroke markers fill"
             id="rect4040"
             width="512"
             height="85.333336"
             x="0"
             y="341.33334" /><rect
             style="fill:#be83ed;fill-opacity:1;stroke:none;stroke-width:7.58395;stroke-dasharray:none;paint-order:stroke markers fill"
             id="rect4042"
             width="512"
             height="85.333336"
             x="0"
             y="426.66669" /><path
             id="path4044"
             style="fill:#433953;fill-opacity:1;stroke:none;stroke-width:10;stroke-dasharray:none;paint-order:stroke markers fill"
             inkscape:transform-center-x="1.8464476"
             inkscape:transform-center-y="-1.8464476"
             d="m 266.91797,42.335938 c -20.91017,1.310964 -28.97587,23.387659 -51.25586,28.234374 -23.76533,5.16983 -40.96439,-14.210567 -62.31055,-2.554687 -21.34615,11.65588 -14.33946,36.601195 -31.53711,53.798825 -17.19764,17.19765 -42.142945,10.19096 -53.798825,31.53711 -11.65588,21.34615 7.724517,38.54522 2.554687,62.31055 -5.169828,23.76533 -29.944034,31.35801 -28.208984,55.61719 1.73505,24.25916 27.336571,28.24942 35.835938,51.03711 8.499366,22.78767 -8.235271,42.56899 6.339843,62.03906 14.575115,19.47007 38.270161,8.98543 57.740231,23.56055 19.47008,14.5751 16.08536,40.2643 38.87305,48.76367 22.78769,8.49936 37.05333,-13.13154 61.3125,-11.39649 24.25918,1.73505 35.29914,25.1757 59.06445,20.00586 23.76533,-5.16982 24.07182,-31.07849 45.41797,-42.73437 21.34616,-11.65588 43.30822,2.09412 60.50586,-15.10352 17.19764,-17.19764 3.44764,-39.15971 15.10352,-60.50586 11.65588,-21.34615 37.56455,-21.65264 42.73437,-45.41797 5.16984,-23.76531 -18.27081,-34.80528 -20.00586,-59.06445 -1.73505,-24.25917 19.89585,-38.52481 11.39649,-61.3125 -8.49937,-22.78768 -34.18857,-19.40297 -48.76367,-38.87305 C 393.3409,122.80727 403.82554,99.112225 384.35547,84.537109 364.8854,69.961996 345.10408,86.696631 322.31641,78.197266 299.52872,69.697899 295.53846,44.096378 271.2793,42.361328 c -1.5162,-0.108441 -2.96732,-0.112788 -4.36133,-0.02539 z m 30.97656,125.894532 c 2.19159,-0.0336 4.42851,0.31091 6.625,1.07422 10.0411,3.48939 15.31557,14.38273 11.82617,24.42383 l -3.36328,9.67968 c -3.48939,10.0411 -14.38274,15.31557 -24.42383,11.82618 -10.04109,-3.4894 -15.31556,-14.38275 -11.82617,-24.42383 l 3.36524,-9.67969 c 2.72608,-7.84459 9.96978,-12.78045 17.79687,-12.90039 z m -83.41015,0.0684 c 8.49214,-0.0539 16.23095,5.60173 18.49414,14.21094 l 2.58593,9.83593 c 2.6823,10.2035 -3.37266,20.57747 -13.57617,23.25977 -10.2035,2.6823 -20.57748,-3.37268 -23.25976,-13.57617 l -2.58594,-9.83594 c -2.6823,-10.20351 3.37267,-20.57747 13.57617,-23.25977 1.5943,-0.41911 3.193,-0.62477 4.76563,-0.63476 z M 256,238.99023 c 28.25606,0 24.41494,16.85762 38.54297,41.32813 12.164,21.06863 26.08247,27.79023 20.70508,44.86719 l -27.72657,-21.49805 1.60352,11.73438 4.64453,33.96679 c -9.4266,1.92832 -20.78264,-2.31054 -37.76953,-2.31055 -28.25603,10e-6 -40.93449,11.7536 -55.0625,-12.71679 -14.12803,-24.47052 2.38955,-29.57257 16.51758,-54.04297 C 231.58309,255.84785 227.74397,238.99023 256,238.99023 Z m -99.94336,10.79102 c 1.87529,-0.001 3.78477,0.3215 5.6543,1.00195 l 8.23828,2.99805 c 8.54638,3.11061 12.92311,12.49463 9.8125,21.04102 -3.11061,8.54638 -12.49659,12.92309 -21.04297,9.8125 l -8.23828,-2.99805 c -8.54638,-3.11061 -12.92116,-12.49659 -9.81055,-21.04297 2.43016,-6.67686 8.68927,-10.80771 15.38672,-10.8125 z m 199.88672,0 c 6.69745,0.005 12.95653,4.13565 15.38672,10.8125 3.11064,8.54637 -1.26418,17.93233 -9.81055,21.04297 l -8.23828,2.99805 c -8.54637,3.11062 -17.93233,-1.26613 -21.04297,-9.8125 -3.11064,-8.54639 1.26613,-17.93038 9.8125,-21.04102 l 8.23828,-2.99805 c 1.86952,-0.68045 3.77901,-1.00328 5.6543,-1.00195 z m -62.02539,64.98633 45.07422,34.94531 -13.35938,7.71289 8.42578,14.5957 -10.6289,6.13672 -8.42774,-14.5957 -13.35742,7.71289 z" /><path
             id="path4046"
             style="fill:#1f1927;fill-opacity:1;stroke:none;stroke-width:10;stroke-dasharray:none;paint-order:stroke markers fill"
             d="M 0,0 V 512 H 512 V 0 Z m 214.30469,19.492188 c 20.70269,1.180203 33.2229,21.62461 57.15039,23.335937 27.3457,1.955803 43.42433,-22.42841 69.11133,-12.847656 25.68699,9.580752 21.87303,38.539222 43.82031,54.96875 21.94728,16.429531 48.6564,4.61131 65.08594,26.558591 16.42952,21.94728 -2.43623,44.24465 7.14453,69.93164 9.58075,25.687 38.44068,30.18555 40.39648,57.53125 1.95581,27.3457 -25.96928,35.90434 -31.79687,62.69336 -5.8276,26.78903 16.01778,46.17427 2.8789,70.23633 -13.13887,24.06205 -41.25881,16.16506 -60.64453,35.55078 -19.38572,19.38573 -11.48872,47.50565 -35.55078,60.64453 -24.06205,13.13888 -43.44731,-8.7065 -70.23633,-2.8789 -26.78902,5.82759 -35.34765,33.75267 -62.69336,31.79687 -27.3457,-1.9558 -31.84425,-30.81573 -57.53125,-40.39648 -25.687,-9.58076 -47.98435,9.285 -69.93164,-7.14453 C 89.560532,433.04313 101.37875,406.334 84.949219,384.38672 68.519688,362.43944 39.561225,366.2534 29.980469,340.56641 20.399714,314.87941 44.783928,298.80078 42.828125,271.45508 40.872321,244.10937 14.447796,231.66207 20.275391,204.87305 26.102984,178.08403 55.310344,177.73979 68.449219,153.67773 81.588096,129.61568 66.086931,104.85838 85.472656,85.472656 104.85838,66.086933 129.61568,81.586141 153.67773,68.447266 c 24.06206,-13.138878 24.40629,-42.344278 51.19532,-48.171875 3.34862,-0.72845 6.47411,-0.951804 9.43164,-0.783203 z" /></g><text
           xml:space="preserve"
           style="font-style:italic;font-variant:normal;font-weight:normal;font-stretch:normal;font-size:138.477px;font-family:'VictorMono Nerd Font';-inkscape-font-specification:'VictorMono Nerd Font, Italic';font-variant-ligatures:normal;font-variant-caps:normal;font-variant-numeric:normal;font-variant-east-asian:normal;text-align:center;text-anchor:middle;fill:#be83ed;fill-opacity:1;stroke:none;stroke-width:25.9643;stroke-dasharray:none;stroke-opacity:1;paint-order:stroke markers fill"
           x="1944.84"
           y="485.20142"
           id="text4932"><tspan
             sodipodi:role="line"
             id="tspan4930"
             x="1982.6063"
             y="485.20142"
             style="fill:#be83ed;fill-opacity:1;stroke-width:25.9643">by NekoMimi </tspan></text></g></g><g
       id="g1085"
       transform="translate(-735.25697)"
       clip-path="url(#clipPath1141)"
       inkscape:export-filename="nIRCirc.png"
       inkscape:export-xdpi="96"
       inkscape:export-ydpi="96"><rect
         style="fill:#e1615e;fill-opacity:1;stroke:none;stroke-width:7.58395;stroke-dasharray:none;paint-order:stroke markers fill"
         id="rect1069"
         width="512"
         height="85.333336"
         x="0"
         y="0" /><rect
         style="fill:#e99d65;fill-opacity:1;stroke:none;stroke-width:7.58395;stroke-dasharray:none;paint-order:stroke markers fill"
         id="rect1071"
         width="512"
         height="85.333336"
         x="0"
         y="85.333336" /><rect
         style="fill:#edca83;fill-opacity:1;stroke:none;stroke-width:7.58395;stroke-dasharray:none;paint-order:stroke markers fill"
         id="rect1073"
         width="512"
         height="85.333336"
         x="0"
         y="170.66667" /><rect
         style="fill:#b3ed83;fill-opacity:1;stroke:none;stroke-width:7.58395;stroke-dasharray:none;paint-order:stroke markers fill"
         id="rect1075"
         width="512"
         height="85.333336"
         x="0"
         y="256" /><rect
         style="fill:#83bbed;fill-opacity:1;stroke:none;stroke-width:7.58395;stroke-dasharray:none;paint-order:stroke markers fill"
         id="rect1077"
         width="512"
         height="85.333336"
         x="0"
         y="341.33334" /><rect
         style="fill:#be83ed;fill-opacity:1;stroke:none;stroke-width:7.58395;stroke-dasharray:none;paint-order:stroke markers fill"
         id="rect1079"
         width="512"
         height="85.333336"
         x="0"
         y="426.66669" /><path
         id="path1081"
         style="fill:#433953;fill-opacity:1;stroke:none;stroke-width:10;stroke-dasharray:none;paint-order:stroke markers fill"
         inkscape:transform-center-x="1.8464476"
         inkscape:transform-center-y="-1.8464476"
         d="m 266.91797,42.335938 c -20.91017,1.310964 -28.97587,23.387659 -51.25586,28.234374 -23.76533,5.16983 -40.96439,-14.210567 -62.31055,-2.554687 -21.34615,11.65588 -14.33946,36.601195 -31.53711,53.798825 -17.19764,17.19765 -42.142945,10.19096 -53.798825,31.53711 -11.65588,21.34615 7.724517,38.54522 2.554687,62.31055 -5.169828,23.76533 -29.944034,31.35801 -28.208984,55.61719 1.73505,24.25916 27.336571,28.24942 35.835938,51.03711 8.499366,22.78767 -8.235271,42.56899 6.339843,62.03906 14.575115,19.47007 38.270161,8.98543 57.740231,23.56055 19.47008,14.5751 16.08536,40.2643 38.87305,48.76367 22.78769,8.49936 37.05333,-13.13154 61.3125,-11.39649 24.25918,1.73505 35.29914,25.1757 59.06445,20.00586 23.76533,-5.16982 24.07182,-31.07849 45.41797,-42.73437 21.34616,-11.65588 43.30822,2.09412 60.50586,-15.10352 17.19764,-17.19764 3.44764,-39.15971 15.10352,-60.50586 11.65588,-21.34615 37.56455,-21.65264 42.73437,-45.41797 5.16984,-23.76531 -18.27081,-34.80528 -20.00586,-59.06445 -1.73505,-24.25917 19.89585,-38.52481 11.39649,-61.3125 -8.49937,-22.78768 -34.18857,-19.40297 -48.76367,-38.87305 C 393.3409,122.80727 403.82554,99.112225 384.35547,84.537109 364.8854,69.961996 345.10408,86.696631 322.31641,78.197266 299.52872,69.697899 295.53846,44.096378 271.2793,42.361328 c -1.5162,-0.108441 -2.96732,-0.112788 -4.36133,-0.02539 z m 30.97656,125.894532 c 2.19159,-0.0336 4.42851,0.31091 6.625,1.07422 10.0411,3.48939 15.31557,14.38273 11.82617,24.42383 l -3.36328,9.67968 c -3.48939,10.0411 -14.38274,15.31557 -24.42383,11.82618 -10.04109,-3.4894 -15.31556,-14.38275 -11.82617,-24.42383 l 3.36524,-9.67969 c 2.72608,-7.84459 9.96978,-12.78045 17.79687,-12.90039 z m -83.41015,0.0684 c 8.49214,-0.0539 16.23095,5.60173 18.49414,14.21094 l 2.58593,9.83593 c 2.6823,10.2035 -3.37266,20.57747 -13.57617,23.25977 -10.2035,2.6823 -20.57748,-3.37268 -23.25976,-13.57617 l -2.58594,-9.83594 c -2.6823,-10.20351 3.37267,-20.57747 13.57617,-23.25977 1.5943,-0.41911 3.193,-0.62477 4.76563,-0.63476 z M 256,238.99023 c 28.25606,0 24.41494,16.85762 38.54297,41.32813 12.164,21.06863 26.08247,27.79023 20.70508,44.86719 l -27.72657,-21.49805 1.60352,11.73438 4.64453,33.96679 c -9.4266,1.92832 -20.78264,-2.31054 -37.76953,-2.31055 -28.25603,10e-6 -40.93449,11.7536 -55.0625,-12.71679 -14.12803,-24.47052 2.38955,-29.57257 16.51758,-54.04297 C 231.58309,255.84785 227.74397,238.99023 256,238.99023 Z m -99.94336,10.79102 c 1.87529,-0.001 3.78477,0.3215 5.6543,1.00195 l 8.23828,2.99805 c 8.54638,3.11061 12.92311,12.49463 9.8125,21.04102 -3.11061,8.54638 -12.49659,12.92309 -21.04297,9.8125 l -8.23828,-2.99805 c -8.54638,-3.11061 -12.92116,-12.49659 -9.81055,-21.04297 2.43016,-6.67686 8.68927,-10.80771 15.38672,-10.8125 z m 199.88672,0 c 6.69745,0.005 12.95653,4.13565 15.38672,10.8125 3.11064,8.54637 -1.26418,17.93233 -9.81055,21.04297 l -8.23828,2.99805 c -8.54637,3.11062 -17.93233,-1.26613 -21.04297,-9.8125 -3.11064,-8.54639 1.26613,-17.93038 9.8125,-21.04102 l 8.23828,-2.99805 c 1.86952,-0.68045 3.77901,-1.00328 5.6543,-1.00195 z m -62.02539,64.98633 45.07422,34.94531 -13.35938,7.71289 8.42578,14.5957 -10.6289,6.13672 -8.42774,-14.5957 -13.35742,7.71289 z" /><path
         id="path1083"
         style="fill:#1f1927;fill-opacity:1;stroke:none;stroke-width:10;stroke-dasharray:none;paint-order:stroke markers fill"
         d="M 0,0 V 512 H 512 V 0 Z m 214.30469,19.492188 c 20.70269,1.180203 33.2229,21.62461 57.15039,23.335937 27.3457,1.955803 43.42433,-22.42841 69.11133,-12.847656 25.68699,9.580752 21.87303,38.539222 43.82031,54.96875 21.94728,16.429531 48.6564,4.61131 65.08594,26.558591 16.42952,21.94728 -2.43623,44.24465 7.14453,69.93164 9.58075,25.687 38.44068,30.18555 40.39648,57.53125 1.95581,27.3457 -25.96928,35.90434 -31.79687,62.69336 -5.8276,26.78903 16.01778,46.17427 2.8789,70.23633 -13.13887,24.06205 -41.25881,16.16506 -60.64453,35.55078 -19.38572,19.38573 -11.48872,47.50565 -35.55078,60.64453 -24.06205,13.13888 -43.44731,-8.7065 -70.23633,-2.8789 -26.78902,5.82759 -35.34765,33.75267 -62.69336,31.79687 -27.3457,-1.9558 -31.84425,-30.81573 -57.53125,-40.39648 -25.687,-9.58076 -47.98435,9.285 -69.93164,-7.14453 C 89.560532,433.04313 101.37875,406.334 84.949219,384.38672 68.519688,362.43944 39.561225,366.2534 29.980469,340.56641 20.399714,314.87941 44.783928,298.80078 42.828125,271.45508 40.872321,244.10937 14.447796,231.66207 20.275391,204.87305 26.102984,178.08403 55.310344,177.73979 68.449219,153.67773 81.588096,129.61568 66.086931,104.85838 85.472656,85.472656 104.85838,66.086933 129.61568,81.586141 153.67773,68.447266 c 24.06206,-13.138878 24.40629,-42.344278 51.19532,-48.171875 3.34862,-0.72845 6.47411,-0.951804 9.43164,-0.783203 z" /></g><g
       id="g1261"
       transform="translate(577.88683,1725.7991)"
       inkscape:export-filename="./nIRC.png"
       inkscape:export-xdpi="96"
       inkscape:export-ydpi="96"><rect
         style="fill:#e1615e;fill-opacity:1;stroke:none;stroke-width:7.58395;stroke-dasharray:none;paint-order:stroke markers fill;filter:url(#filter894)"
         id="rect1138-3"
         width="512"
         height="85.333336"
         x="-577.88684"
         y="-799.0304" /><rect
         style="fill:#e99d65;fill-opacity:1;stroke:none;stroke-width:7.58395;stroke-dasharray:none;paint-order:stroke markers fill;filter:url(#filter898)"
         id="rect1244-6"
         width="512"
         height="85.333336"
         x="-577.88684"
         y="-713.69708" /><rect
         style="fill:#edca83;fill-opacity:1;stroke:none;stroke-width:7.58395;stroke-dasharray:none;paint-order:stroke markers fill;filter:url(#filter902)"
         id="rect1246-7"
         width="512"
         height="85.333336"
         x="-577.88684"
         y="-628.36377" /><rect
         style="fill:#b3ed83;fill-opacity:1;stroke:none;stroke-width:7.58395;stroke-dasharray:none;paint-order:stroke markers fill;filter:url(#filter906)"
         id="rect1248-5"
         width="512"
         height="85.333336"
         x="-577.88684"
         y="-543.0304" /><rect
         style="fill:#83bbed;fill-opacity:1;stroke:none;stroke-width:7.58395;stroke-dasharray:none;paint-order:stroke markers fill;filter:url(#filter1249)"
         id="rect1250-3"
         width="512"
         height="85.333336"
         x="-577.88684"
         y="-457.69708" /><rect
         style="fill:#be83ed;fill-opacity:1;stroke:none;stroke-width:7.58395;stroke-dasharray:none;paint-order:stroke markers fill;filter:url(#filter914)"
         id="rect1252-5"
         width="512"
         height="85.333336"
         x="-577.88684"
         y="-372.36374" /><path
         id="path3437-6"
         style="fill:#433953;fill-opacity:1;stroke:none;stroke-width:10;stroke-dasharray:none;paint-order:stroke markers fill"
         inkscape:transform-center-x="1.8464476"
         inkscape:transform-center-y="-1.8464476"
         d="m -310.96885,-756.69448 c -20.91017,1.31096 -28.97587,23.38766 -51.25586,28.23437 -23.76533,5.16983 -40.96439,-14.21057 -62.31055,-2.55469 -21.34615,11.65588 -14.33946,36.6012 -31.53711,53.79883 -17.19764,17.19765 -42.14294,10.19096 -53.79882,31.53711 -11.65588,21.34615 7.72451,38.54522 2.55468,62.31055 -5.16983,23.76533 -29.94403,31.35801 -28.20898,55.61719 1.73505,24.25916 27.33657,28.24942 35.83594,51.03711 8.49936,22.78767 -8.23527,42.56899 6.33984,62.03906 14.57511,19.47007 38.27016,8.98543 57.74023,23.56055 19.47008,14.5751 16.08536,40.2643 38.87305,48.76367 22.78769,8.49936 37.05333,-13.13154 61.3125,-11.39649 24.25918,1.73505 35.29914,25.1757 59.06445,20.00586 23.76533,-5.16982 24.07182,-31.07849 45.41797,-42.73437 21.34616,-11.65588 43.30822,2.09412 60.50586,-15.10352 17.19764,-17.19764 3.44764,-39.15971 15.10352,-60.50586 11.65588,-21.34615 37.56455,-21.65264 42.73437,-45.41797 5.16984,-23.76531 -18.27081,-34.80528 -20.00586,-59.06445 -1.73505,-24.25917 19.89585,-38.52481 11.39649,-61.3125 -8.49937,-22.78768 -34.18857,-19.40297 -48.76367,-38.87305 -14.57512,-19.47007 -4.09048,-43.16512 -23.56055,-57.74023 -19.47007,-14.57511 -39.25139,2.15952 -62.03906,-6.33984 -22.78769,-8.49937 -26.77795,-34.10089 -51.03711,-35.83594 -1.5162,-0.10844 -2.96732,-0.11279 -4.36133,-0.0254 z m 30.97656,125.89453 c 2.19159,-0.0336 4.42851,0.31091 6.625,1.07422 10.0411,3.48939 15.31557,14.38273 11.82617,24.42383 l -3.36328,9.67968 c -3.48939,10.0411 -14.38274,15.31557 -24.42383,11.82618 -10.04109,-3.4894 -15.31556,-14.38275 -11.82617,-24.42383 l 3.36524,-9.67969 c 2.72608,-7.84459 9.96978,-12.78045 17.79687,-12.90039 z m -83.41015,0.0684 c 8.49214,-0.0539 16.23095,5.60173 18.49414,14.21094 l 2.58593,9.83593 c 2.6823,10.2035 -3.37266,20.57747 -13.57617,23.25977 -10.2035,2.6823 -20.57748,-3.37268 -23.25976,-13.57617 l -2.58594,-9.83594 c -2.6823,-10.20351 3.37267,-20.57747 13.57617,-23.25977 1.5943,-0.41911 3.193,-0.62477 4.76563,-0.63476 z m 41.51562,70.69136 c 28.25606,0 24.41494,16.85762 38.54297,41.32813 12.164,21.06863 26.08247,27.79023 20.70508,44.86719 l -27.72657,-21.49805 1.60352,11.73438 4.64453,33.96679 c -9.4266,1.92832 -20.78264,-2.31054 -37.76953,-2.31055 -28.25603,10e-6 -40.93449,11.7536 -55.0625,-12.71679 -14.12803,-24.47052 2.38955,-29.57257 16.51758,-54.04297 14.12801,-24.47051 10.28889,-41.32813 38.54492,-41.32813 z m -99.94336,10.79102 c 1.87529,-10e-4 3.78477,0.3215 5.6543,1.00195 l 8.23828,2.99805 c 8.54638,3.11061 12.92311,12.49463 9.8125,21.04102 -3.11061,8.54638 -12.49659,12.92309 -21.04297,9.8125 l -8.23828,-2.99805 c -8.54638,-3.11061 -12.92116,-12.49659 -9.81055,-21.04297 2.43016,-6.67686 8.68927,-10.80771 15.38672,-10.8125 z m 199.88672,0 c 6.69745,0.005 12.95653,4.13565 15.38672,10.8125 3.11064,8.54637 -1.26418,17.93233 -9.81055,21.04297 l -8.23828,2.99805 c -8.54637,3.11062 -17.93233,-1.26613 -21.04297,-9.8125 -3.11064,-8.54639 1.26613,-17.93038 9.8125,-21.04102 l 8.23828,-2.99805 c 1.86952,-0.68045 3.77901,-1.00328 5.6543,-1.00195 z m -62.02539,64.98633 45.07422,34.94531 -13.35938,7.71289 8.42578,14.5957 -10.6289,6.13672 -8.42774,-14.5957 -13.35742,7.71289 z" /><path
         id="rect2203-2"
         style="fill:#1f1927;fill-opacity:1;stroke:none;stroke-width:10;stroke-dasharray:none;paint-order:stroke markers fill"
         d="m -577.88682,-799.03042 v 512 h 512 v -512 z m 214.30469,19.49219 c 20.70269,1.1802 33.2229,21.62461 57.15039,23.33593 27.3457,1.95581 43.42433,-22.42841 69.11133,-12.84765 25.68699,9.58075 21.87303,38.53922 43.82031,54.96875 21.94728,16.42953 48.6564,4.61131 65.08594,26.55859 16.42952,21.94728 -2.43623,44.24465 7.14453,69.93164 9.58075,25.687 38.44068,30.18555 40.39648,57.53125 1.95581,27.3457 -25.96928,35.90434 -31.79687,62.69336 -5.8276,26.78903 16.01778,46.17427 2.8789,70.23633 -13.13887,24.06205 -41.25881,16.16506 -60.64453,35.55078 -19.38572,19.38573 -11.48872,47.50565 -35.55078,60.64453 -24.06205,13.13888 -43.44731,-8.7065 -70.23633,-2.8789 -26.78902,5.82759 -35.34765,33.75267 -62.69336,31.79687 -27.3457,-1.9558 -31.84425,-30.81573 -57.53125,-40.39648 -25.687,-9.58076 -47.98435,9.285 -69.93164,-7.14453 -21.94728,-16.42953 -10.12906,-43.13866 -26.55859,-65.08594 -16.42953,-21.94728 -45.38799,-18.13332 -54.96875,-43.82031 -9.58076,-25.687 14.80346,-41.76563 12.84766,-69.11133 -1.95581,-27.34571 -28.38033,-39.79301 -22.55274,-66.58203 5.82759,-26.78902 35.03495,-27.13326 48.17383,-51.19532 13.13888,-24.06205 -2.36229,-48.81935 17.02344,-68.20507 19.38572,-19.38573 44.14302,-3.88652 68.20507,-17.02539 24.06206,-13.13888 24.40629,-42.34428 51.19532,-48.17188 3.34862,-0.72845 6.47411,-0.9518 9.43164,-0.7832 z" /></g><g
       id="g1379"
       inkscape:export-filename="./nIRCirc.png"
       inkscape:export-xdpi="96"
       inkscape:export-ydpi="96"><g
         id="g1361"
         transform="translate(-1.4582031e-4,-615.39798)"><path
           id="rect1287"
           style="fill:#e1615e;fill-opacity:1;stroke:none;stroke-width:7.58395;stroke-dasharray:none;paint-order:stroke markers fill;filter:url(#filter894)"
           d="m -479.25781,1542.166 a 256,256 0 0 0 -190.44727,85.332 h 381.21094 a 256,256 0 0 0 -190.76367,-85.332 z" /><path
           id="rect1289"
           style="fill:#e99d65;fill-opacity:1;stroke:none;stroke-width:7.58395;stroke-dasharray:none;paint-order:stroke markers fill;filter:url(#filter898)"
           d="m -669.70703,1627.5 a 256,256 0 0 0 -50.25195,85.332 h 482.03906 a 256,256 0 0 0 -50.57227,-85.332 z" /><path
           id="rect1291"
           style="fill:#edca83;fill-opacity:1;stroke:none;stroke-width:7.58395;stroke-dasharray:none;paint-order:stroke markers fill;filter:url(#filter902)"
           d="m -719.95898,1712.832 a 256,256 0 0 0 -15.29883,85.334 h 512 a 256,256 0 0 0 -14.66211,-85.334 z" /><path
           id="rect1293"
           style="fill:#b3ed83;fill-opacity:1;stroke:none;stroke-width:7.58395;stroke-dasharray:none;paint-order:stroke markers fill;filter:url(#filter906)"
           d="m -735.25781,1798.166 a 256,256 0 0 0 15.29687,85.332 h 481.40821 a 256,256 0 0 0 15.29492,-85.332 z" /><path
           id="rect1295"
           style="fill:#83bbed;fill-opacity:1;stroke:none;stroke-width:7.58395;stroke-dasharray:none;paint-order:stroke markers fill;filter:url(#filter1249)"
           d="m -719.95898,1883.5 a 256,256 0 0 0 50.25195,85.332 h 380.90039 a 256,256 0 0 0 50.25195,-85.332 z" /><path
           id="rect1297"
           style="fill:#be83ed;fill-opacity:1;stroke:none;stroke-width:7.58395;stroke-dasharray:none;paint-order:stroke markers fill;filter:url(#filter914)"
           d="m -669.70703,1968.832 a 256,256 0 0 0 190.44922,85.334 256,256 0 0 0 190.45117,-85.334 z" /></g><g
         id="g1279"
         transform="translate(-157.37014,1725.7991)"
         clip-path="url(#clipPath1283)"><rect
           style="fill:#e1615e;fill-opacity:1;stroke:none;stroke-width:7.58395;stroke-dasharray:none;paint-order:stroke markers fill;filter:url(#filter894)"
           id="rect1263"
           width="512"
           height="85.333336"
           x="-577.88684"
           y="-799.0304" /><rect
           style="fill:#e99d65;fill-opacity:1;stroke:none;stroke-width:7.58395;stroke-dasharray:none;paint-order:stroke markers fill;filter:url(#filter898)"
           id="rect1265"
           width="512"
           height="85.333336"
           x="-577.88684"
           y="-713.69708" /><rect
           style="fill:#edca83;fill-opacity:1;stroke:none;stroke-width:7.58395;stroke-dasharray:none;paint-order:stroke markers fill;filter:url(#filter902)"
           id="rect1267"
           width="512"
           height="85.333336"
           x="-577.88684"
           y="-628.36377" /><rect
           style="fill:#b3ed83;fill-opacity:1;stroke:none;stroke-width:7.58395;stroke-dasharray:none;paint-order:stroke markers fill;filter:url(#filter906)"
           id="rect1269"
           width="512"
           height="85.333336"
           x="-577.88684"
           y="-543.0304" /><rect
           style="fill:#83bbed;fill-opacity:1;stroke:none;stroke-width:7.58395;stroke-dasharray:none;paint-order:stroke markers fill;filter:url(#filter1249)"
           id="rect1271"
           width="512"
           height="85.333336"
           x="-577.88684"
           y="-457.69708" /><rect
           style="fill:#be83ed;fill-opacity:1;stroke:none;stroke-width:7.58395;stroke-dasharray:none;paint-order:stroke markers fill;filter:url(#filter914)"
           id="rect1273"
           width="512"
           height="85.333336"
           x="-577.88684"
           y="-372.36374" /><path
           id="path1275"
           style="fill:#433953;fill-opacity:1;stroke:none;stroke-width:10;stroke-dasharray:none;paint-order:stroke markers fill"
           inkscape:transform-center-x="1.8464476"
           inkscape:transform-center-y="-1.8464476"
           d="m -310.96885,-756.69448 c -20.91017,1.31096 -28.97587,23.38766 -51.25586,28.23437 -23.76533,5.16983 -40.96439,-14.21057 -62.31055,-2.55469 -21.34615,11.65588 -14.33946,36.6012 -31.53711,53.79883 -17.19764,17.19765 -42.14294,10.19096 -53.79882,31.53711 -11.65588,21.34615 7.72451,38.54522 2.55468,62.31055 -5.16983,23.76533 -29.94403,31.35801 -28.20898,55.61719 1.73505,24.25916 27.33657,28.24942 35.83594,51.03711 8.49936,22.78767 -8.23527,42.56899 6.33984,62.03906 14.57511,19.47007 38.27016,8.98543 57.74023,23.56055 19.47008,14.5751 16.08536,40.2643 38.87305,48.76367 22.78769,8.49936 37.05333,-13.13154 61.3125,-11.39649 24.25918,1.73505 35.29914,25.1757 59.06445,20.00586 23.76533,-5.16982 24.07182,-31.07849 45.41797,-42.73437 21.34616,-11.65588 43.30822,2.09412 60.50586,-15.10352 17.19764,-17.19764 3.44764,-39.15971 15.10352,-60.50586 11.65588,-21.34615 37.56455,-21.65264 42.73437,-45.41797 5.16984,-23.76531 -18.27081,-34.80528 -20.00586,-59.06445 -1.73505,-24.25917 19.89585,-38.52481 11.39649,-61.3125 -8.49937,-22.78768 -34.18857,-19.40297 -48.76367,-38.87305 -14.57512,-19.47007 -4.09048,-43.16512 -23.56055,-57.74023 -19.47007,-14.57511 -39.25139,2.15952 -62.03906,-6.33984 -22.78769,-8.49937 -26.77795,-34.10089 -51.03711,-35.83594 -1.5162,-0.10844 -2.96732,-0.11279 -4.36133,-0.0254 z m 30.97656,125.89453 c 2.19159,-0.0336 4.42851,0.31091 6.625,1.07422 10.0411,3.48939 15.31557,14.38273 11.82617,24.42383 l -3.36328,9.67968 c -3.48939,10.0411 -14.38274,15.31557 -24.42383,11.82618 -10.04109,-3.4894 -15.31556,-14.38275 -11.82617,-24.42383 l 3.36524,-9.67969 c 2.72608,-7.84459 9.96978,-12.78045 17.79687,-12.90039 z m -83.41015,0.0684 c 8.49214,-0.0539 16.23095,5.60173 18.49414,14.21094 l 2.58593,9.83593 c 2.6823,10.2035 -3.37266,20.57747 -13.57617,23.25977 -10.2035,2.6823 -20.57748,-3.37268 -23.25976,-13.57617 l -2.58594,-9.83594 c -2.6823,-10.20351 3.37267,-20.57747 13.57617,-23.25977 1.5943,-0.41911 3.193,-0.62477 4.76563,-0.63476 z m 41.51562,70.69136 c 28.25606,0 24.41494,16.85762 38.54297,41.32813 12.164,21.06863 26.08247,27.79023 20.70508,44.86719 l -27.72657,-21.49805 1.60352,11.73438 4.64453,33.96679 c -9.4266,1.92832 -20.78264,-2.31054 -37.76953,-2.31055 -28.25603,10e-6 -40.93449,11.7536 -55.0625,-12.71679 -14.12803,-24.47052 2.38955,-29.57257 16.51758,-54.04297 14.12801,-24.47051 10.28889,-41.32813 38.54492,-41.32813 z m -99.94336,10.79102 c 1.87529,-10e-4 3.78477,0.3215 5.6543,1.00195 l 8.23828,2.99805 c 8.54638,3.11061 12.92311,12.49463 9.8125,21.04102 -3.11061,8.54638 -12.49659,12.92309 -21.04297,9.8125 l -8.23828,-2.99805 c -8.54638,-3.11061 -12.92116,-12.49659 -9.81055,-21.04297 2.43016,-6.67686 8.68927,-10.80771 15.38672,-10.8125 z m 199.88672,0 c 6.69745,0.005 12.95653,4.13565 15.38672,10.8125 3.11064,8.54637 -1.26418,17.93233 -9.81055,21.04297 l -8.23828,2.99805 c -8.54637,3.11062 -17.93233,-1.26613 -21.04297,-9.8125 -3.11064,-8.54639 1.26613,-17.93038 9.8125,-21.04102 l 8.23828,-2.99805 c 1.86952,-0.68045 3.77901,-1.00328 5.6543,-1.00195 z m -62.02539,64.98633 45.07422,34.94531 -13.35938,7.71289 8.42578,14.5957 -10.6289,6.13672 -8.42774,-14.5957 -13.35742,7.71289 z" /><path
           id="path1277"
           style="fill:#1f1927;fill-opacity:1;stroke:none;stroke-width:10;stroke-dasharray:none;paint-order:stroke markers fill"
           d="m -577.88682,-799.03042 v 512 h 512 v -512 z m 214.30469,19.49219 c 20.70269,1.1802 33.2229,21.62461 57.15039,23.33593 27.3457,1.95581 43.42433,-22.42841 69.11133,-12.84765 25.68699,9.58075 21.87303,38.53922 43.82031,54.96875 21.94728,16.42953 48.6564,4.61131 65.08594,26.55859 16.42952,21.94728 -2.43623,44.24465 7.14453,69.93164 9.58075,25.687 38.44068,30.18555 40.39648,57.53125 1.95581,27.3457 -25.96928,35.90434 -31.79687,62.69336 -5.8276,26.78903 16.01778,46.17427 2.8789,70.23633 -13.13887,24.06205 -41.25881,16.16506 -60.64453,35.55078 -19.38572,19.38573 -11.48872,47.50565 -35.55078,60.64453 -24.06205,13.13888 -43.44731,-8.7065 -70.23633,-2.8789 -26.78902,5.82759 -35.34765,33.75267 -62.69336,31.79687 -27.3457,-1.9558 -31.84425,-30.81573 -57.53125,-40.39648 -25.687,-9.58076 -47.98435,9.285 -69.93164,-7.14453 -21.94728,-16.42953 -10.12906,-43.13866 -26.55859,-65.08594 -16.42953,-21.94728 -45.38799,-18.13332 -54.96875,-43.82031 -9.58076,-25.687 14.80346,-41.76563 12.84766,-69.11133 -1.95581,-27.34571 -28.38033,-39.79301 -22.55274,-66.58203 5.82759,-26.78902 35.03495,-27.13326 48.17383,-51.19532 13.13888,-24.06205 -2.36229,-48.81935 17.02344,-68.20507 19.38572,-19.38573 44.14302,-3.88652 68.20507,-17.02539 24.06206,-13.13888 24.40629,-42.34428 51.19532,-48.17188 3.34862,-0.72845 6.47411,-0.9518 9.43164,-0.7832 z" /></g></g><g
       id="g3689"
       inkscape:export-filename="./nIRCBanner.png"
       inkscape:export-xdpi="96"
       inkscape:export-ydpi="96"><g
         id="g3452"
         transform="translate(108.6693,-1100.3024)"><rect
           style="opacity:1;mix-blend-mode:normal;fill:#aad0ed;fill-opacity:1;stroke-width:10;paint-order:stroke markers fill;filter:url(#filter3415)"
           id="rect3413"
           width="1836.2349"
           height="671.34357"
           x="562.04193"
           y="1947.3993"
           ry="335.67178" /><rect
           style="opacity:1;fill:#d3e7f6;fill-opacity:1;stroke-width:10;paint-order:stroke markers fill"
           id="rect2376"
           width="1836.2349"
           height="671.34357"
           x="562.04193"
           y="1915.9236"
           ry="335.67178" /><g
           id="g1413"
           transform="translate(1373.4153,1068.8272)"><g
             id="g1393"
             transform="translate(-1.4582031e-4,-615.39798)"><path
               id="path1381"
               style="fill:#e1615e;fill-opacity:1;stroke:none;stroke-width:7.58395;stroke-dasharray:none;paint-order:stroke markers fill;filter:url(#filter894)"
               d="m -479.25781,1542.166 a 256,256 0 0 0 -190.44727,85.332 h 381.21094 a 256,256 0 0 0 -190.76367,-85.332 z" /><path
               id="path1383"
               style="fill:#e99d65;fill-opacity:1;stroke:none;stroke-width:7.58395;stroke-dasharray:none;paint-order:stroke markers fill;filter:url(#filter898)"
               d="m -669.70703,1627.5 a 256,256 0 0 0 -50.25195,85.332 h 482.03906 a 256,256 0 0 0 -50.57227,-85.332 z" /><path
               id="path1385"
               style="fill:#edca83;fill-opacity:1;stroke:none;stroke-width:7.58395;stroke-dasharray:none;paint-order:stroke markers fill;filter:url(#filter902)"
               d="m -719.95898,1712.832 a 256,256 0 0 0 -15.29883,85.334 h 512 a 256,256 0 0 0 -14.66211,-85.334 z" /><path
               id="path1387"
               style="fill:#b3ed83;fill-opacity:1;stroke:none;stroke-width:7.58395;stroke-dasharray:none;paint-order:stroke markers fill;filter:url(#filter906)"
               d="m -735.25781,1798.166 a 256,256 0 0 0 15.29687,85.332 h 481.40821 a 256,256 0 0 0 15.29492,-85.332 z" /><path
               id="path1389"
               style="fill:#83bbed;fill-opacity:1;stroke:none;stroke-width:7.58395;stroke-dasharray:none;paint-order:stroke markers fill;filter:url(#filter1249)"
               d="m -719.95898,1883.5 a 256,256 0 0 0 50.25195,85.332 h 380.90039 a 256,256 0 0 0 50.25195,-85.332 z" /><path
               id="path1391"
               style="fill:#be83ed;fill-opacity:1;stroke:none;stroke-width:7.58395;stroke-dasharray:none;paint-order:stroke markers fill;filter:url(#filter914)"
               d="m -669.70703,1968.832 a 256,256 0 0 0 190.44922,85.334 256,256 0 0 0 190.45117,-85.334 z" /></g><g
             id="g1411"
             transform="translate(-157.37014,1725.7991)"
             clip-path="url(#clipPath1283)"><rect
               style="fill:#e1615e;fill-opacity:1;stroke:none;stroke-width:7.58395;stroke-dasharray:none;paint-order:stroke markers fill;filter:url(#filter894)"
               id="rect1395"
               width="512"
               height="85.333336"
               x="-577.88684"
               y="-799.0304" /><rect
               style="fill:#e99d65;fill-opacity:1;stroke:none;stroke-width:7.58395;stroke-dasharray:none;paint-order:stroke markers fill;filter:url(#filter898)"
               id="rect1397"
               width="512"
               height="85.333336"
               x="-577.88684"
               y="-713.69708" /><rect
               style="fill:#edca83;fill-opacity:1;stroke:none;stroke-width:7.58395;stroke-dasharray:none;paint-order:stroke markers fill;filter:url(#filter902)"
               id="rect1399"
               width="512"
               height="85.333336"
               x="-577.88684"
               y="-628.36377" /><rect
               style="fill:#b3ed83;fill-opacity:1;stroke:none;stroke-width:7.58395;stroke-dasharray:none;paint-order:stroke markers fill;filter:url(#filter906)"
               id="rect1401"
               width="512"
               height="85.333336"
               x="-577.88684"
               y="-543.0304" /><rect
               style="fill:#83bbed;fill-opacity:1;stroke:none;stroke-width:7.58395;stroke-dasharray:none;paint-order:stroke markers fill;filter:url(#filter1249)"
               id="rect1403"
               width="512"
               height="85.333336"
               x="-577.88684"
               y="-457.69708" /><rect
               style="fill:#be83ed;fill-opacity:1;stroke:none;stroke-width:7.58395;stroke-dasharray:none;paint-order:stroke markers fill;filter:url(#filter914)"
               id="rect1405"
               width="512"
               height="85.333336"
               x="-577.88684"
               y="-372.36374" /><path
               id="path1407"
               style="fill:#433953;fill-opacity:1;stroke:none;stroke-width:10;stroke-dasharray:none;paint-order:stroke markers fill"
               inkscape:transform-center-x="1.8464476"
               inkscape:transform-center-y="-1.8464476"
               d="m -310.96885,-756.69448 c -20.91017,1.31096 -28.97587,23.38766 -51.25586,28.23437 -23.76533,5.16983 -40.96439,-14.21057 -62.31055,-2.55469 -21.34615,11.65588 -14.33946,36.6012 -31.53711,53.79883 -17.19764,17.19765 -42.14294,10.19096 -53.79882,31.53711 -11.65588,21.34615 7.72451,38.54522 2.55468,62.31055 -5.16983,23.76533 -29.94403,31.35801 -28.20898,55.61719 1.73505,24.25916 27.33657,28.24942 35.83594,51.03711 8.49936,22.78767 -8.23527,42.56899 6.33984,62.03906 14.57511,19.47007 38.27016,8.98543 57.74023,23.56055 19.47008,14.5751 16.08536,40.2643 38.87305,48.76367 22.78769,8.49936 37.05333,-13.13154 61.3125,-11.39649 24.25918,1.73505 35.29914,25.1757 59.06445,20.00586 23.76533,-5.16982 24.07182,-31.07849 45.41797,-42.73437 21.34616,-11.65588 43.30822,2.09412 60.50586,-15.10352 17.19764,-17.19764 3.44764,-39.15971 15.10352,-60.50586 11.65588,-21.34615 37.56455,-21.65264 42.73437,-45.41797 5.16984,-23.76531 -18.27081,-34.80528 -20.00586,-59.06445 -1.73505,-24.25917 19.89585,-38.52481 11.39649,-61.3125 -8.49937,-22.78768 -34.18857,-19.40297 -48.76367,-38.87305 -14.57512,-19.47007 -4.09048,-43.16512 -23.56055,-57.74023 -19.47007,-14.57511 -39.25139,2.15952 -62.03906,-6.33984 -22.78769,-8.49937 -26.77795,-34.10089 -51.03711,-35.83594 -1.5162,-0.10844 -2.96732,-0.11279 -4.36133,-0.0254 z m 30.97656,125.89453 c 2.19159,-0.0336 4.42851,0.31091 6.625,1.07422 10.0411,3.48939 15.31557,14.38273 11.82617,24.42383 l -3.36328,9.67968 c -3.48939,10.0411 -14.38274,15.31557 -24.42383,11.82618 -10.04109,-3.4894 -15.31556,-14.38275 -11.82617,-24.42383 l 3.36524,-9.67969 c 2.72608,-7.84459 9.96978,-12.78045 17.79687,-12.90039 z m -83.41015,0.0684 c 8.49214,-0.0539 16.23095,5.60173 18.49414,14.21094 l 2.58593,9.83593 c 2.6823,10.2035 -3.37266,20.57747 -13.57617,23.25977 -10.2035,2.6823 -20.57748,-3.37268 -23.25976,-13.57617 l -2.58594,-9.83594 c -2.6823,-10.20351 3.37267,-20.57747 13.57617,-23.25977 1.5943,-0.41911 3.193,-0.62477 4.76563,-0.63476 z m 41.51562,70.69136 c 28.25606,0 24.41494,16.85762 38.54297,41.32813 12.164,21.06863 26.08247,27.79023 20.70508,44.86719 l -27.72657,-21.49805 1.60352,11.73438 4.64453,33.96679 c -9.4266,1.92832 -20.78264,-2.31054 -37.76953,-2.31055 -28.25603,10e-6 -40.93449,11.7536 -55.0625,-12.71679 -14.12803,-24.47052 2.38955,-29.57257 16.51758,-54.04297 14.12801,-24.47051 10.28889,-41.32813 38.54492,-41.32813 z m -99.94336,10.79102 c 1.87529,-10e-4 3.78477,0.3215 5.6543,1.00195 l 8.23828,2.99805 c 8.54638,3.11061 12.92311,12.49463 9.8125,21.04102 -3.11061,8.54638 -12.49659,12.92309 -21.04297,9.8125 l -8.23828,-2.99805 c -8.54638,-3.11061 -12.92116,-12.49659 -9.81055,-21.04297 2.43016,-6.67686 8.68927,-10.80771 15.38672,-10.8125 z m 199.88672,0 c 6.69745,0.005 12.95653,4.13565 15.38672,10.8125 3.11064,8.54637 -1.26418,17.93233 -9.81055,21.04297 l -8.23828,2.99805 c -8.54637,3.11062 -17.93233,-1.26613 -21.04297,-9.8125 -3.11064,-8.54639 1.26613,-17.93038 9.8125,-21.04102 l 8.23828,-2.99805 c 1.86952,-0.68045 3.77901,-1.00328 5.6543,-1.00195 z m -62.02539,64.98633 45.07422,34.94531 -13.35938,7.71289 8.42578,14.5957 -10.6289,6.13672 -8.42774,-14.5957 -13.35742,7.71289 z" /><path
               id="path1409"
               style="fill:#1f1927;fill-opacity:1;stroke:none;stroke-width:10;stroke-dasharray:none;paint-order:stroke markers fill"
               d="m -577.88682,-799.03042 v 512 h 512 v -512 z m 214.30469,19.49219 c 20.70269,1.1802 33.2229,21.62461 57.15039,23.33593 27.3457,1.95581 43.42433,-22.42841 69.11133,-12.84765 25.68699,9.58075 21.87303,38.53922 43.82031,54.96875 21.94728,16.42953 48.6564,4.61131 65.08594,26.55859 16.42952,21.94728 -2.43623,44.24465 7.14453,69.93164 9.58075,25.687 38.44068,30.18555 40.39648,57.53125 1.95581,27.3457 -25.96928,35.90434 -31.79687,62.69336 -5.8276,26.78903 16.01778,46.17427 2.8789,70.23633 -13.13887,24.06205 -41.25881,16.16506 -60.64453,35.55078 -19.38572,19.38573 -11.48872,47.50565 -35.55078,60.64453 -24.06205,13.13888 -43.44731,-8.7065 -70.23633,-2.8789 -26.78902,5.82759 -35.34765,33.75267 -62.69336,31.79687 -27.3457,-1.9558 -31.84425,-30.81573 -57.53125,-40.39648 -25.687,-9.58076 -47.98435,9.285 -69.93164,-7.14453 -21.94728,-16.42953 -10.12906,-43.13866 -26.55859,-65.08594 -16.42953,-21.94728 -45.38799,-18.13332 -54.96875,-43.82031 -9.58076,-25.687 14.80346,-41.76563 12.84766,-69.11133 -1.95581,-27.34571 -28.38033,-39.79301 -22.55274,-66.58203 5.82759,-26.78902 35.03495,-27.13326 48.17383,-51.19532 13.13888,-24.06205 -2.36229,-48.81935 17.02344,-68.20507 19.38572,-19.38573 44.14302,-3.88652 68.20507,-17.02539 24.06206,-13.13888 24.40629,-42.34428 51.19532,-48.17188 3.34862,-0.72845 6.47411,-0.9518 9.43164,-0.7832 z" /></g></g><g
           id="g1733"
           transform="matrix(3.4450862,0,0,3.4450862,-3910.4537,-1661.0313)"
           style="fill:#433953;fill-opacity:1"><text
             xml:space="preserve"
             style="font-style:normal;font-variant:normal;font-weight:normal;font-stretch:normal;font-size:192px;font-family:Z003;-inkscape-font-specification:'Z003, Normal';font-variant-ligatures:normal;font-variant-caps:normal;font-variant-numeric:normal;font-variant-east-asian:normal;text-align:center;text-anchor:middle;fill:#433953;fill-opacity:1;stroke-width:10;paint-order:stroke markers fill"
             x="-1561.8975"
             y="1182.7687"
             id="text1469"
             transform="scale(-1,1)"><tspan
               sodipodi:role="line"
               id="tspan1467"
               x="-1561.8975"
               y="1182.7687">n</tspan></text><g
             id="g1533"
             transform="translate(0,-0.07231532)"
             style="fill:#433953;fill-opacity:1"><text
               xml:space="preserve"
               style="font-style:normal;font-variant:normal;font-weight:normal;font-stretch:normal;font-size:192px;font-family:Z003;-inkscape-font-specification:'Z003, Normal';font-variant-ligatures:normal;font-variant-caps:normal;font-variant-numeric:normal;font-variant-east-asian:normal;text-align:center;text-anchor:middle;fill:#433953;fill-opacity:1;stroke-width:10;paint-order:stroke markers fill"
               x="1597.9934"
               y="1181.1224"
               id="text1523"><tspan
                 sodipodi:role="line"
                 id="tspan1521"
                 x="1597.9934"
                 y="1181.1224">i</tspan></text><text
               xml:space="preserve"
               style="font-style:normal;font-variant:normal;font-weight:normal;font-stretch:normal;font-size:192px;font-family:Z003;-inkscape-font-specification:'Z003, Normal';font-variant-ligatures:normal;font-variant-caps:normal;font-variant-numeric:normal;font-variant-east-asian:normal;text-align:center;text-anchor:middle;fill:#433953;fill-opacity:1;stroke-width:10;paint-order:stroke markers fill"
               x="1467.0895"
               y="1388.8401"
               id="text1527"
               transform="rotate(-7.6931946)"><tspan
                 sodipodi:role="line"
                 id="tspan1525"
                 x="1467.0895"
                 y="1388.8401">r</tspan></text></g><path
             style="fill:#433953;fill-opacity:1;stroke-width:10;paint-order:stroke markers fill"
             d="m 1590.5054,1124.3944 -1.1503,-4.986 1.5343,-0.3706 z"
             id="path1598" /><text
             xml:space="preserve"
             style="font-style:normal;font-variant:normal;font-weight:normal;font-stretch:normal;font-size:192px;font-family:cmmi10;-inkscape-font-specification:'cmmi10, Normal';font-variant-ligatures:normal;font-variant-caps:normal;font-variant-numeric:normal;font-variant-east-asian:normal;text-align:center;text-anchor:middle;fill:#433953;fill-opacity:1;stroke-width:10;paint-order:stroke markers fill"
             x="1699.3733"
             y="1181.3899"
             id="text1622"><tspan
               sodipodi:role="line"
               id="tspan1620"
               x="1699.3733"
               y="1181.3899">c</tspan></text><path
             style="fill:#433953;fill-opacity:1;stroke-width:10;paint-order:stroke markers fill"
             d="m 1675.4652,1115.3887 c 0.8045,0.813 1.4738,2.2999 1.688,3.3707 l 5.798,-4.1141 7.201,-7.3389 0.1576,-1.4837 c -1.1324,-1.6222 -2.9205,-4.6882 -5.0558,-6.3497 -1.8843,-1.4662 -4.1376,-2.4265 -6.5278,-2.9479 z"
             id="path1624"
             sodipodi:nodetypes="cccccacc" /></g><text
           xml:space="preserve"
           style="font-style:italic;font-variant:normal;font-weight:normal;font-stretch:normal;font-size:66.0838px;font-family:'VictorMono Nerd Font';-inkscape-font-specification:'VictorMono Nerd Font, Italic';font-variant-ligatures:normal;font-variant-caps:normal;font-variant-numeric:normal;font-variant-east-asian:normal;text-align:center;text-anchor:middle;fill:#433953;fill-opacity:1;stroke-width:3.44186;paint-order:stroke markers fill"
           x="1775.6558"
           y="2670.1567"
           id="text2272"
           transform="scale(1.0633261,0.94044527)"><tspan
             sodipodi:role="line"
             id="tspan2270"
             x="1775.6558"
             y="2670.1567"
             style="stroke-width:3.44186">by nekomimi</tspan></text></g><path
         style="opacity:1;fill:#433953;fill-opacity:1;stroke-width:10;paint-order:stroke markers fill"
         d="m 1981.0473,1016.2108 1.1157,0.2107 -11.7564,64.9253 -0.2252,-0.2375 z"
         id="path3517" /><path
         style="opacity:1;fill:#433953;fill-opacity:1;stroke-width:10;paint-order:stroke markers fill"
         d="m 1678.718,1093.9081 0.1577,-0.038 0.2245,-0.1203 -1.3619,18.5522 h -0.094 l -0.1116,-0.034 -3.9375,-17.1916 0.1722,0.028 z"
         id="path3651" /></g><g
       id="g705"
       inkscape:export-filename="githubBanner.png"
       inkscape:export-xdpi="96"
       inkscape:export-ydpi="96"><rect
         style="fill:#f9f9f9;stroke-width:10;paint-order:stroke markers fill"
         id="rect539"
         width="1280"
         height="640"
         x="-4.186646"
         y="2016.7076" /><g
         id="g665"
         inkscape:export-filename="./nIRCBanner.png"
         inkscape:export-xdpi="96"
         inkscape:export-ydpi="96"
         transform="matrix(0.57105547,0,0,0.57105547,-271.49599,1661.281)"><g
           id="g659"
           transform="translate(108.6693,-1100.3024)"><rect
             style="opacity:1;mix-blend-mode:normal;fill:#aad0ed;fill-opacity:1;stroke-width:10;paint-order:stroke markers fill;filter:url(#filter3415)"
             id="rect593"
             width="1836.2349"
             height="671.34357"
             x="562.04193"
             y="1947.3993"
             ry="335.67178" /><rect
             style="opacity:1;fill:#d3e7f6;fill-opacity:1;stroke-width:10;paint-order:stroke markers fill"
             id="rect595"
             width="1836.2349"
             height="671.34357"
             x="562.04193"
             y="1915.9236"
             ry="335.67178" /><g
             id="g629"
             transform="translate(1373.4153,1068.8272)"><g
               id="g609"
               transform="translate(-1.4582031e-4,-615.39798)"><path
                 id="path597"
                 style="fill:#e1615e;fill-opacity:1;stroke:none;stroke-width:7.58395;stroke-dasharray:none;paint-order:stroke markers fill;filter:url(#filter894)"
                 d="m -479.25781,1542.166 a 256,256 0 0 0 -190.44727,85.332 h 381.21094 a 256,256 0 0 0 -190.76367,-85.332 z" /><path
                 id="path599"
                 style="fill:#e99d65;fill-opacity:1;stroke:none;stroke-width:7.58395;stroke-dasharray:none;paint-order:stroke markers fill;filter:url(#filter898)"
                 d="m -669.70703,1627.5 a 256,256 0 0 0 -50.25195,85.332 h 482.03906 a 256,256 0 0 0 -50.57227,-85.332 z" /><path
                 id="path601"
                 style="fill:#edca83;fill-opacity:1;stroke:none;stroke-width:7.58395;stroke-dasharray:none;paint-order:stroke markers fill;filter:url(#filter902)"
                 d="m -719.95898,1712.832 a 256,256 0 0 0 -15.29883,85.334 h 512 a 256,256 0 0 0 -14.66211,-85.334 z" /><path
                 id="path603"
                 style="fill:#b3ed83;fill-opacity:1;stroke:none;stroke-width:7.58395;stroke-dasharray:none;paint-order:stroke markers fill;filter:url(#filter906)"
                 d="m -735.25781,1798.166 a 256,256 0 0 0 15.29687,85.332 h 481.40821 a 256,256 0 0 0 15.29492,-85.332 z" /><path
                 id="path605"
                 style="fill:#83bbed;fill-opacity:1;stroke:none;stroke-width:7.58395;stroke-dasharray:none;paint-order:stroke markers fill;filter:url(#filter1249)"
                 d="m -719.95898,1883.5 a 256,256 0 0 0 50.25195,85.332 h 380.90039 a 256,256 0 0 0 50.25195,-85.332 z" /><path
                 id="path607"
                 style="fill:#be83ed;fill-opacity:1;stroke:none;stroke-width:7.58395;stroke-dasharray:none;paint-order:stroke markers fill;filter:url(#filter914)"
                 d="m -669.70703,1968.832 a 256,256 0 0 0 190.44922,85.334 256,256 0 0 0 190.45117,-85.334 z" /></g><g
               id="g627"
               transform="translate(-157.37014,1725.7991)"
               clip-path="url(#clipPath1283)"><rect
                 style="fill:#e1615e;fill-opacity:1;stroke:none;stroke-width:7.58395;stroke-dasharray:none;paint-order:stroke markers fill;filter:url(#filter894)"
                 id="rect611"
                 width="512"
                 height="85.333336"
                 x="-577.88684"
                 y="-799.0304" /><rect
                 style="fill:#e99d65;fill-opacity:1;stroke:none;stroke-width:7.58395;stroke-dasharray:none;paint-order:stroke markers fill;filter:url(#filter898)"
                 id="rect613"
                 width="512"
                 height="85.333336"
                 x="-577.88684"
                 y="-713.69708" /><rect
                 style="fill:#edca83;fill-opacity:1;stroke:none;stroke-width:7.58395;stroke-dasharray:none;paint-order:stroke markers fill;filter:url(#filter902)"
                 id="rect615"
                 width="512"
                 height="85.333336"
                 x="-577.88684"
                 y="-628.36377" /><rect
                 style="fill:#b3ed83;fill-opacity:1;stroke:none;stroke-width:7.58395;stroke-dasharray:none;paint-order:stroke markers fill;filter:url(#filter906)"
                 id="rect617"
                 width="512"
                 height="85.333336"
                 x="-577.88684"
                 y="-543.0304" /><rect
                 style="fill:#83bbed;fill-opacity:1;stroke:none;stroke-width:7.58395;stroke-dasharray:none;paint-order:stroke markers fill;filter:url(#filter1249)"
                 id="rect619"
                 width="512"
                 height="85.333336"
                 x="-577.88684"
                 y="-457.69708" /><rect
                 style="fill:#be83ed;fill-opacity:1;stroke:none;stroke-width:7.58395;stroke-dasharray:none;paint-order:stroke markers fill;filter:url(#filter914)"
                 id="rect621"
                 width="512"
                 height="85.333336"
                 x="-577.88684"
                 y="-372.36374" /><path
                 id="path623"
                 style="fill:#433953;fill-opacity:1;stroke:none;stroke-width:10;stroke-dasharray:none;paint-order:stroke markers fill"
                 inkscape:transform-center-x="1.8464476"
                 inkscape:transform-center-y="-1.8464476"
                 d="m -310.96885,-756.69448 c -20.91017,1.31096 -28.97587,23.38766 -51.25586,28.23437 -23.76533,5.16983 -40.96439,-14.21057 -62.31055,-2.55469 -21.34615,11.65588 -14.33946,36.6012 -31.53711,53.79883 -17.19764,17.19765 -42.14294,10.19096 -53.79882,31.53711 -11.65588,21.34615 7.72451,38.54522 2.55468,62.31055 -5.16983,23.76533 -29.94403,31.35801 -28.20898,55.61719 1.73505,24.25916 27.33657,28.24942 35.83594,51.03711 8.49936,22.78767 -8.23527,42.56899 6.33984,62.03906 14.57511,19.47007 38.27016,8.98543 57.74023,23.56055 19.47008,14.5751 16.08536,40.2643 38.87305,48.76367 22.78769,8.49936 37.05333,-13.13154 61.3125,-11.39649 24.25918,1.73505 35.29914,25.1757 59.06445,20.00586 23.76533,-5.16982 24.07182,-31.07849 45.41797,-42.73437 21.34616,-11.65588 43.30822,2.09412 60.50586,-15.10352 17.19764,-17.19764 3.44764,-39.15971 15.10352,-60.50586 11.65588,-21.34615 37.56455,-21.65264 42.73437,-45.41797 5.16984,-23.76531 -18.27081,-34.80528 -20.00586,-59.06445 -1.73505,-24.25917 19.89585,-38.52481 11.39649,-61.3125 -8.49937,-22.78768 -34.18857,-19.40297 -48.76367,-38.87305 -14.57512,-19.47007 -4.09048,-43.16512 -23.56055,-57.74023 -19.47007,-14.57511 -39.25139,2.15952 -62.03906,-6.33984 -22.78769,-8.49937 -26.77795,-34.10089 -51.03711,-35.83594 -1.5162,-0.10844 -2.96732,-0.11279 -4.36133,-0.0254 z m 30.97656,125.89453 c 2.19159,-0.0336 4.42851,0.31091 6.625,1.07422 10.0411,3.48939 15.31557,14.38273 11.82617,24.42383 l -3.36328,9.67968 c -3.48939,10.0411 -14.38274,15.31557 -24.42383,11.82618 -10.04109,-3.4894 -15.31556,-14.38275 -11.82617,-24.42383 l 3.36524,-9.67969 c 2.72608,-7.84459 9.96978,-12.78045 17.79687,-12.90039 z m -83.41015,0.0684 c 8.49214,-0.0539 16.23095,5.60173 18.49414,14.21094 l 2.58593,9.83593 c 2.6823,10.2035 -3.37266,20.57747 -13.57617,23.25977 -10.2035,2.6823 -20.57748,-3.37268 -23.25976,-13.57617 l -2.58594,-9.83594 c -2.6823,-10.20351 3.37267,-20.57747 13.57617,-23.25977 1.5943,-0.41911 3.193,-0.62477 4.76563,-0.63476 z m 41.51562,70.69136 c 28.25606,0 24.41494,16.85762 38.54297,41.32813 12.164,21.06863 26.08247,27.79023 20.70508,44.86719 l -27.72657,-21.49805 1.60352,11.73438 4.64453,33.96679 c -9.4266,1.92832 -20.78264,-2.31054 -37.76953,-2.31055 -28.25603,10e-6 -40.93449,11.7536 -55.0625,-12.71679 -14.12803,-24.47052 2.38955,-29.57257 16.51758,-54.04297 14.12801,-24.47051 10.28889,-41.32813 38.54492,-41.32813 z m -99.94336,10.79102 c 1.87529,-10e-4 3.78477,0.3215 5.6543,1.00195 l 8.23828,2.99805 c 8.54638,3.11061 12.92311,12.49463 9.8125,21.04102 -3.11061,8.54638 -12.49659,12.92309 -21.04297,9.8125 l -8.23828,-2.99805 c -8.54638,-3.11061 -12.92116,-12.49659 -9.81055,-21.04297 2.43016,-6.67686 8.68927,-10.80771 15.38672,-10.8125 z m 199.88672,0 c 6.69745,0.005 12.95653,4.13565 15.38672,10.8125 3.11064,8.54637 -1.26418,17.93233 -9.81055,21.04297 l -8.23828,2.99805 c -8.54637,3.11062 -17.93233,-1.26613 -21.04297,-9.8125 -3.11064,-8.54639 1.26613,-17.93038 9.8125,-21.04102 l 8.23828,-2.99805 c 1.86952,-0.68045 3.77901,-1.00328 5.6543,-1.00195 z m -62.02539,64.98633 45.07422,34.94531 -13.35938,7.71289 8.42578,14.5957 -10.6289,6.13672 -8.42774,-14.5957 -13.35742,7.71289 z" /><path
                 id="path625"
                 style="fill:#1f1927;fill-opacity:1;stroke:none;stroke-width:10;stroke-dasharray:none;paint-order:stroke markers fill"
                 d="m -577.88682,-799.03042 v 512 h 512 v -512 z m 214.30469,19.49219 c 20.70269,1.1802 33.2229,21.62461 57.15039,23.33593 27.3457,1.95581 43.42433,-22.42841 69.11133,-12.84765 25.68699,9.58075 21.87303,38.53922 43.82031,54.96875 21.94728,16.42953 48.6564,4.61131 65.08594,26.55859 16.42952,21.94728 -2.43623,44.24465 7.14453,69.93164 9.58075,25.687 38.44068,30.18555 40.39648,57.53125 1.95581,27.3457 -25.96928,35.90434 -31.79687,62.69336 -5.8276,26.78903 16.01778,46.17427 2.8789,70.23633 -13.13887,24.06205 -41.25881,16.16506 -60.64453,35.55078 -19.38572,19.38573 -11.48872,47.50565 -35.55078,60.64453 -24.06205,13.13888 -43.44731,-8.7065 -70.23633,-2.8789 -26.78902,5.82759 -35.34765,33.75267 -62.69336,31.79687 -27.3457,-1.9558 -31.84425,-30.81573 -57.53125,-40.39648 -25.687,-9.58076 -47.98435,9.285 -69.93164,-7.14453 -21.94728,-16.42953 -10.12906,-43.13866 -26.55859,-65.08594 -16.42953,-21.94728 -45.38799,-18.13332 -54.96875,-43.82031 -9.58076,-25.687 14.80346,-41.76563 12.84766,-69.11133 -1.95581,-27.34571 -28.38033,-39.79301 -22.55274,-66.58203 5.82759,-26.78902 35.03495,-27.13326 48.17383,-51.19532 13.13888,-24.06205 -2.36229,-48.81935 17.02344,-68.20507 19.38572,-19.38573 44.14302,-3.88652 68.20507,-17.02539 24.06206,-13.13888 24.40629,-42.34428 51.19532,-48.17188 3.34862,-0.72845 6.47411,-0.9518 9.43164,-0.7832 z" /></g></g><g
             id="g653"
             transform="matrix(3.4450862,0,0,3.4450862,-3910.4537,-1661.0313)"
             style="fill:#433953;fill-opacity:1"><text
               xml:space="preserve"
               style="font-style:normal;font-variant:normal;font-weight:normal;font-stretch:normal;font-size:192px;font-family:Z003;-inkscape-font-specification:'Z003, Normal';font-variant-ligatures:normal;font-variant-caps:normal;font-variant-numeric:normal;font-variant-east-asian:normal;text-align:center;text-anchor:middle;fill:#433953;fill-opacity:1;stroke-width:10;paint-order:stroke markers fill"
               x="-1561.8975"
               y="1182.7687"
               id="text633"
               transform="scale(-1,1)"><tspan
                 sodipodi:role="line"
                 id="tspan631"
                 x="-1561.8975"
                 y="1182.7687">n</tspan></text><g
               id="g643"
               transform="translate(0,-0.07231532)"
               style="fill:#433953;fill-opacity:1"><text
                 xml:space="preserve"
                 style="font-style:normal;font-variant:normal;font-weight:normal;font-stretch:normal;font-size:192px;font-family:Z003;-inkscape-font-specification:'Z003, Normal';font-variant-ligatures:normal;font-variant-caps:normal;font-variant-numeric:normal;font-variant-east-asian:normal;text-align:center;text-anchor:middle;fill:#433953;fill-opacity:1;stroke-width:10;paint-order:stroke markers fill"
                 x="1597.9934"
                 y="1181.1224"
                 id="text637"><tspan
                   sodipodi:role="line"
                   id="tspan635"
                   x="1597.9934"
                   y="1181.1224">i</tspan></text><text
                 xml:space="preserve"
                 style="font-style:normal;font-variant:normal;font-weight:normal;font-stretch:normal;font-size:192px;font-family:Z003;-inkscape-font-specification:'Z003, Normal';font-variant-ligatures:normal;font-variant-caps:normal;font-variant-numeric:normal;font-variant-east-asian:normal;text-align:center;text-anchor:middle;fill:#433953;fill-opacity:1;stroke-width:10;paint-order:stroke markers fill"
                 x="1467.0895"
                 y="1388.8401"
                 id="text641"
                 transform="rotate(-7.6931946)"><tspan
                   sodipodi:role="line"
                   id="tspan639"
                   x="1467.0895"
                   y="1388.8401">r</tspan></text></g><path
               style="fill:#433953;fill-opacity:1;stroke-width:10;paint-order:stroke markers fill"
               d="m 1590.5054,1124.3944 -1.1503,-4.986 1.5343,-0.3706 z"
               id="path645" /><text
               xml:space="preserve"
               style="font-style:normal;font-variant:normal;font-weight:normal;font-stretch:normal;font-size:192px;font-family:cmmi10;-inkscape-font-specification:'cmmi10, Normal';font-variant-ligatures:normal;font-variant-caps:normal;font-variant-numeric:normal;font-variant-east-asian:normal;text-align:center;text-anchor:middle;fill:#433953;fill-opacity:1;stroke-width:10;paint-order:stroke markers fill"
               x="1699.3733"
               y="1181.3899"
               id="text649"><tspan
                 sodipodi:role="line"
                 id="tspan647"
                 x="1699.3733"
                 y="1181.3899">c</tspan></text><path
               style="fill:#433953;fill-opacity:1;stroke-width:10;paint-order:stroke markers fill"
               d="m 1675.4652,1115.3887 c 0.8045,0.813 1.4738,2.2999 1.688,3.3707 l 5.798,-4.1141 7.201,-7.3389 0.1576,-1.4837 c -1.1324,-1.6222 -2.9205,-4.6882 -5.0558,-6.3497 -1.8843,-1.4662 -4.1376,-2.4265 -6.5278,-2.9479 z"
               id="path651"
               sodipodi:nodetypes="cccccacc" /></g><text
             xml:space="preserve"
             style="font-style:italic;font-variant:normal;font-weight:normal;font-stretch:normal;font-size:66.0838px;font-family:'VictorMono Nerd Font';-inkscape-font-specification:'VictorMono Nerd Font, Italic';font-variant-ligatures:normal;font-variant-caps:normal;font-variant-numeric:normal;font-variant-east-asian:normal;text-align:center;text-anchor:middle;fill:#433953;fill-opacity:1;stroke-width:3.44186;paint-order:stroke markers fill"
             x="1775.6558"
             y="2670.1567"
             id="text657"
             transform="scale(1.0633261,0.94044527)"><tspan
               sodipodi:role="line"
               id="tspan655"
               x="1775.6558"
               y="2670.1567"
               style="stroke-width:3.44186">by nekomimi</tspan></text></g><path
           style="opacity:1;fill:#433953;fill-opacity:1;stroke-width:10;paint-order:stroke markers fill"
           d="m 1981.0473,1016.2108 1.1157,0.2107 -11.7564,64.9253 -0.2252,-0.2375 z"
           id="path661" /><path
           style="opacity:1;fill:#433953;fill-opacity:1;stroke-width:10;paint-order:stroke markers fill"
           d="m 1678.718,1093.9081 0.1577,-0.038 0.2245,-0.1203 -1.3619,18.5522 h -0.094 l -0.1116,-0.034 -3.9375,-17.1916 0.1722,0.028 z"
           id="path663" /></g></g></g></svg>
